<svg width="532" height="377" viewBox="0 0 532 377" fill="none" xmlns="http://www.w3.org/2000/svg">
<g clip-path="url(#clip0_13_38)">
<path opacity="0.1" d="M176.868 376.788C202.776 376.788 223.779 373.413 223.779 369.25C223.779 365.087 202.776 361.713 176.868 361.713C150.96 361.713 129.957 365.087 129.957 369.25C129.957 373.413 150.96 376.788 176.868 376.788Z" fill="#70A4CC"/>
<path opacity="0.1" d="M431.867 377C464.196 377 490.404 373.625 490.404 369.462C490.404 365.299 464.196 361.925 431.867 361.925C399.538 361.925 373.33 365.299 373.33 369.462C373.33 373.625 399.538 377 431.867 377Z" fill="#70A4CC"/>
<path opacity="0.1" d="M6.663 162.891H55.5234V229.517H10.24C10.1197 230.201 10.0041 230.889 9.87896 231.578H55.5234V285.31C55.4415 285.286 55.3693 285.257 55.2923 285.228C54.0021 284.718 52.7215 284.178 51.4409 283.6L50.6224 283.229C49.3386 282.622 48.0548 281.98 46.771 281.303C46.3232 281.067 45.8755 280.821 45.4326 280.571C38.3054 276.576 31.8308 271.515 26.2332 265.563C26.0695 265.404 25.9154 265.235 25.7517 265.081C24.9718 264.233 24.2063 263.376 23.4649 262.499L22.6465 261.536C21.7703 260.462 20.923 259.359 20.0997 258.242C19.9794 258.078 19.8638 257.914 19.7387 257.76C16.3905 253.116 13.6105 248.087 11.458 242.781C11.3906 242.622 11.3329 242.449 11.2703 242.299C10.6091 240.598 10.0234 238.88 9.51307 237.146C9.29161 236.419 9.07978 235.701 8.89684 234.945C8.82944 234.723 8.77166 234.506 8.71871 234.29C5.98418 223.612 5.66162 212.519 5.66162 201.504C5.66162 200.218 5.66162 198.928 5.66162 197.651C5.66162 193.196 5.71458 188.712 5.79161 184.233C5.79161 183.072 5.83975 181.916 5.86382 180.75C5.93122 177.793 6.02751 174.836 6.15268 171.879C6.18157 171.055 6.22008 170.236 6.26341 169.417C6.26341 168.945 6.28748 168.473 6.33563 168.001C6.45117 166.287 6.54746 164.586 6.663 162.891Z" fill="#70A4CC"/>
<path opacity="0.1" d="M55.5234 88.7087H28.7221C33.0788 81.8866 37.839 75.3311 42.9773 69.077C46.9587 64.1835 51.1616 59.4153 55.5234 54.8204V88.7087Z" fill="#70A4CC"/>
<path opacity="0.1" d="M55.5234 90.77V160.83H6.81706C6.81706 160.627 6.85076 160.42 6.8652 160.218C6.90853 159.664 6.95186 159.11 7 158.561C7.05296 157.916 7.11073 157.265 7.17331 156.634C7.2359 156.004 7.3033 155.233 7.37552 154.535C7.44773 153.836 7.51513 153.128 7.59697 152.43C7.67882 151.731 7.75103 151.033 7.83769 150.339C7.92435 149.646 8.00138 148.943 8.09285 148.249C8.16506 147.671 8.24209 147.098 8.31912 146.52C8.42985 145.706 8.54539 144.887 8.67056 144.078C8.67056 143.958 8.70426 143.832 8.72352 143.717C9.60222 137.793 10.7995 131.922 12.3102 126.127C13.8915 120.049 15.9107 114.093 18.3521 108.307C20.9469 102.253 23.9849 96.3998 27.4415 90.7941L55.5234 90.77Z" fill="#70A4CC"/>
<path opacity="0.1" d="M67.1884 162.886V229.517H171.548V162.886H67.1884ZM67.1884 231.573V288.792C67.7854 288.917 68.3776 289.038 68.9649 289.139C69.7641 289.293 70.5585 289.433 71.3721 289.553C71.5261 289.577 71.685 289.601 71.8535 289.616C72.1712 289.669 72.4986 289.712 72.8164 289.755C73.6204 289.866 74.4195 289.958 75.2235 290.03C75.6038 290.069 75.989 290.102 76.3741 290.131L77.3033 290.203C77.8088 290.242 78.3095 290.271 78.8054 290.285C79.1135 290.285 79.4216 290.314 79.7393 290.324C79.98 290.324 80.2208 290.324 80.4711 290.324C80.7214 290.324 81.0777 290.324 81.381 290.324C81.795 290.324 82.2091 290.324 82.6183 290.324H83.1719C83.586 290.324 84 290.324 84.4092 290.285H84.4381C84.7221 290.285 85.011 290.285 85.2999 290.247C85.38 290.252 85.4604 290.252 85.5406 290.247C85.7813 290.247 86.022 290.247 86.2531 290.213H86.4216L88.0344 290.088C88.564 290.04 89.0983 289.977 89.6375 289.919L90.7352 289.789C95.2008 289.163 99.6169 288.223 103.95 286.976C113.685 284.26 123.208 280.46 132.937 277.676C145.517 274.088 159.416 272.325 171.572 276.713V231.573H67.1884ZM171.548 88.7087V0.00482493C160.123 -0.119016 148.728 1.21793 137.641 3.98318C111.215 10.625 87.5048 25.0309 67.1884 43.4296V88.7039H72.4264V90.7605H67.1884V160.83H171.548V90.7653H93.9319V88.7087H171.548ZM305.593 58.7458C299.055 58.5146 292.556 56.4436 286.677 53.2455C275.436 47.1286 266.457 37.6836 256.424 29.7125C235.578 13.1103 209.726 3.09215 183.204 0.606877V88.7087H332.182L332.553 88.3186L305.593 58.7458ZM319.164 56.3376L333.554 72.1354V52.1955C328.735 52.7927 324.513 54.2136 319.184 56.3183L319.164 56.3376ZM333.554 303.001V231.573H302.892C302.81 231.27 302.728 230.962 302.632 230.653C302.724 230.962 302.801 231.27 302.887 231.573H183.223V283.229C184.359 284.072 185.481 284.958 186.593 285.859C187.792 286.822 188.976 287.839 190.165 288.836L191.364 289.828C191.937 290.309 192.514 290.791 193.097 291.244C194.252 292.181 195.419 293.106 196.597 294.018C197.179 294.5 197.776 294.933 198.369 295.386C207.77 302.577 217.687 309.066 228.039 314.801C230.36 316.085 232.701 317.339 235.063 318.562C236.638 319.367 238.221 320.166 239.81 320.942C242.198 322.107 244.605 323.231 247.032 324.313C269.402 334.36 293.057 341.253 317.32 344.797C322.709 345.594 328.119 346.22 333.55 346.676V302.996H334.031L333.554 303.001ZM183.223 90.7653V160.83H333.574V90.7653H183.223ZM183.223 162.886V229.517H333.574V162.886H183.223ZM345.243 52.1088V74.351L363.61 54.1895C357.525 53.2069 351.403 52.5053 345.243 52.0847V52.1088ZM345.243 162.91V229.517H491.478V162.886L345.243 162.91ZM490.944 308.289L491.459 231.573H345.243V347.442C354.663 347.838 364.096 347.725 373.503 347.105H373.667C378.16 346.822 382.633 346.411 387.085 345.872H387.186C410.935 343.106 434.157 336.907 456.127 327.468M519.675 173.858C519.127 172.562 518.554 171.277 517.971 170.005C516.883 167.597 515.732 165.256 514.548 162.915H503.138V229.517H531.986C531.971 210.655 527.2 191.39 519.69 173.834L519.675 173.858ZM503.138 231.597V297.582C511.265 289.789 518.13 280.874 523.074 270.682C529.02 258.41 531.74 245.122 531.961 231.588L503.138 231.597ZM503.138 143.495V160.835H513.479C510.351 154.866 506.904 149.07 503.153 143.471L503.138 143.495ZM403.964 65.1805C403.203 64.8916 402.442 64.5978 401.677 64.3136C393.604 61.3309 385.354 58.8506 376.975 56.8867L348.869 87.7454L348.329 88.3186L348.691 88.7135H448.722C434.791 79.1195 419.771 71.2119 403.978 65.1565L403.964 65.1805ZM451.654 90.7894H347.294L345.243 92.6678V160.83H363.22H363.249H491.497V127.813C479.896 113.776 466.506 101.321 451.668 90.7653L451.654 90.7894Z" fill="#70A4CC"/>
<path opacity="0.1" d="M55.5234 126.108V160.83H6.81706C6.81706 160.627 6.85076 160.42 6.8652 160.218C6.90853 159.664 6.95186 159.11 7 158.561C7.05296 157.916 7.11073 157.266 7.17331 156.635C7.2359 156.004 7.3033 155.233 7.37552 154.535C7.44773 153.836 7.51513 153.128 7.59697 152.43C7.67882 151.731 7.75103 151.033 7.83769 150.34C7.92435 149.646 8.00138 148.943 8.09285 148.249C8.16506 147.671 8.24209 147.098 8.31912 146.52C8.42985 145.706 8.54539 144.887 8.67056 144.078C8.67056 143.958 8.70426 143.833 8.72352 143.717C9.60222 137.794 10.7995 131.922 12.3102 126.127L55.5234 126.108Z" fill="#70A4CC"/>
<path opacity="0.1" d="M6.663 162.891H55.5234V229.517H10.24C10.1197 230.201 10.0041 230.889 9.87896 231.578H55.5234V285.31C55.4415 285.286 55.3693 285.257 55.2923 285.228C54.0021 284.718 52.7215 284.178 51.4409 283.6L50.6224 283.229C49.3386 282.622 48.0548 281.98 46.771 281.303C46.3232 281.067 45.8755 280.821 45.4326 280.571C38.3054 276.576 31.8308 271.515 26.2332 265.563C26.0695 265.404 25.9154 265.235 25.7517 265.081C24.9718 264.233 24.2063 263.376 23.4649 262.499L22.6465 261.536C21.7703 260.462 20.923 259.359 20.0997 258.242C19.9794 258.078 19.8638 257.914 19.7387 257.76C16.3905 253.116 13.6105 248.087 11.458 242.781C11.3906 242.622 11.3329 242.449 11.2703 242.299C10.6091 240.598 10.0234 238.88 9.51307 237.146C9.29161 236.419 9.07978 235.701 8.89684 234.945C8.82944 234.723 8.77166 234.506 8.71871 234.29C5.98418 223.612 5.66162 212.519 5.66162 201.504C5.66162 200.218 5.66162 198.928 5.66162 197.651C5.66162 193.196 5.71458 188.712 5.79161 184.233C5.79161 183.072 5.83975 181.916 5.86382 180.75C5.93122 177.793 6.02751 174.836 6.15268 171.879C6.18157 171.055 6.22008 170.236 6.26341 169.417C6.26341 168.945 6.28748 168.473 6.33563 168.001C6.45117 166.287 6.54746 164.586 6.663 162.891Z" fill="#70A4CC"/>
<path opacity="0.1" d="M103.926 100.798V160.83H67.1884V100.798H72.4264V80.4727H93.9271V100.798H103.926Z" fill="#70A4CC"/>
<path opacity="0.1" d="M103.926 162.886H67.1933V229.512H103.926V162.886Z" fill="#70A4CC"/>
<path opacity="0.1" d="M67.1884 231.578H103.926V286.967C99.5928 288.213 95.1768 289.151 90.7111 289.775L89.6135 289.91C89.0743 289.972 88.5399 290.025 88.0103 290.078C87.4807 290.131 86.9319 290.17 86.3975 290.204H86.229C85.9979 290.204 85.7476 290.232 85.5213 290.237H85.2758C84.9869 290.237 84.6981 290.266 84.4092 290.276C84 290.3 83.5908 290.305 83.1719 290.309C82.9938 290.309 82.8253 290.309 82.6472 290.309C82.2331 290.309 81.8239 290.309 81.4099 290.309H80.5C80.2545 290.309 80.0186 290.309 79.7634 290.309L78.8342 290.276C78.3528 290.276 77.8329 290.223 77.3322 290.189L76.4078 290.122L75.2572 290.016C74.4484 289.943 73.6444 289.852 72.8501 289.741L71.8872 289.606L71.4058 289.539C70.6018 289.414 69.8074 289.279 68.9986 289.125C68.4065 289.023 67.8191 288.898 67.2221 288.778L67.1884 231.578Z" fill="#70A4CC"/>
<path opacity="0.1" d="M333.574 93.7083H303.282V160.825H333.574V93.7083Z" fill="#70A4CC"/>
<path opacity="0.1" d="M333.578 162.886V229.516H183.223V200.777H263.309V217.731H303.282V162.886H333.578Z" fill="#70A4CC"/>
<path opacity="0.1" d="M334.055 303.015H333.574V346.724C328.149 346.265 322.741 345.64 317.349 344.851C293.074 341.295 269.409 334.387 247.032 324.323C240.571 321.414 234.242 318.238 228.044 314.796C217.692 309.058 207.773 302.569 198.369 295.381C196.006 293.57 193.675 291.717 191.373 289.823C189.78 288.508 188.196 287.16 186.593 285.849C185.481 284.949 184.359 284.063 183.223 283.215V231.578H302.882C302.801 231.27 302.719 230.962 302.632 230.658C302.724 230.962 302.81 231.27 302.892 231.578H333.574V302.986C333.737 302.991 333.896 303.006 334.055 303.015Z" fill="#70A4CC"/>
<path opacity="0.1" d="M412.576 88.7087H392.838V82.5726H401.686V64.2943C402.453 64.5737 403.217 64.861 403.978 65.1565V82.5726H412.576V88.7087Z" fill="#70A4CC"/>
<path opacity="0.1" d="M460.132 160.83H363.23C363.23 160.83 363.23 160.83 363.263 160.854L363.22 160.83H345.243V93.7128H350.337V143.322H373.614V113.942H392.842V90.77H412.581V113.961H431.809V143.341H460.132V160.83Z" fill="#70A4CC"/>
<path opacity="0.1" d="M345.243 162.886V229.516H460.132V162.886H345.243ZM491.319 307.947L491.478 255.207H460.132V231.607H345.243V347.442C354.663 347.837 364.096 347.725 373.503 347.104H373.667C378.16 346.822 382.633 346.411 387.085 345.871H387.186C410.935 343.106 434.157 336.907 456.127 327.468" fill="#70A4CC"/>
<path opacity="0.1" d="M505.179 231.578H531.981C531.745 245.107 529.03 258.396 523.089 270.668C518.144 280.864 511.274 289.78 503.157 297.568V255.183H505.179V231.578Z" fill="#70A4CC"/>
<path opacity="0.1" d="M531.995 229.517H505.179V173.834H519.69C527.2 191.39 531.971 210.655 531.995 229.517Z" fill="#70A4CC"/>
<path opacity="0.1" d="M333.578 112.367H317.349V133.41H333.578V112.367Z" fill="#70A4CC"/>
<path opacity="0.1" d="M333.578 155.984H317.349V160.83H333.578V155.984Z" fill="#70A4CC"/>
<path opacity="0.1" d="M333.578 162.886H317.349V177.022H333.578V162.886Z" fill="#70A4CC"/>
<path opacity="0.1" d="M333.578 199.602H317.349V220.645H333.578V199.602Z" fill="#70A4CC"/>
<path opacity="0.1" d="M333.578 243.219H317.349V264.262H333.578V243.219Z" fill="#70A4CC"/>
<path opacity="0.1" d="M333.574 302.986C333.737 302.986 333.896 302.986 334.055 303.015H333.574V307.904H317.349V286.837H333.574V302.986Z" fill="#70A4CC"/>
<path opacity="0.1" d="M333.574 330.445V346.7C328.149 346.241 322.741 345.616 317.349 344.826V330.445H333.574Z" fill="#70A4CC"/>
<path opacity="0.1" d="M252.775 227.97H183.223V229.517H252.775V227.97Z" fill="#70A4CC"/>
<path opacity="0.1" d="M252.775 231.573H183.223V237.497H252.775V231.573Z" fill="#70A4CC"/>
<path opacity="0.1" d="M252.775 256.917H183.223V266.444H252.775V256.917Z" fill="#70A4CC"/>
<path opacity="0.1" d="M252.77 285.864V295.391H198.369C196.006 293.586 193.673 291.733 191.369 289.832C189.775 288.518 188.196 287.169 186.588 285.864H252.77Z" fill="#70A4CC"/>
<path opacity="0.1" d="M252.77 314.806V324.323H247.027C240.572 321.411 234.245 318.233 228.044 314.791L252.77 314.806Z" fill="#70A4CC"/>
<path opacity="0.1" d="M387.2 169.345H373.508V183.043H387.2V169.345Z" fill="#70A4CC"/>
<path opacity="0.1" d="M90.7448 105.523H77.053V119.221H90.7448V105.523Z" fill="#70A4CC"/>
<path opacity="0.1" d="M90.7448 137.34H77.053V151.038H90.7448V137.34Z" fill="#70A4CC"/>
<path opacity="0.1" d="M90.7448 169.157H77.053V182.855H90.7448V169.157Z" fill="#70A4CC"/>
<path opacity="0.1" d="M90.7448 200.97H77.053V214.668H90.7448V200.97Z" fill="#70A4CC"/>
<path opacity="0.1" d="M90.7448 232.787H77.053V246.485H90.7448V232.787Z" fill="#70A4CC"/>
<path opacity="0.1" d="M90.7448 264.604H77.053V278.302H90.7448V264.604Z" fill="#70A4CC"/>
<path opacity="0.1" d="M439.469 169.345H425.777V183.043H439.469V169.345Z" fill="#70A4CC"/>
<path opacity="0.1" d="M387.2 203.132H373.508V216.83H387.2V203.132Z" fill="#70A4CC"/>
<path opacity="0.1" d="M439.469 203.132H425.777V216.83H439.469V203.132Z" fill="#70A4CC"/>
<path opacity="0.1" d="M387.2 236.915H373.508V250.612H387.2V236.915Z" fill="#70A4CC"/>
<path opacity="0.1" d="M439.469 236.915H425.777V250.612H439.469V236.915Z" fill="#70A4CC"/>
<path opacity="0.1" d="M387.2 270.702H373.508V284.4H387.2V270.702Z" fill="#70A4CC"/>
<path opacity="0.1" d="M439.469 270.702H425.777V284.4H439.469V270.702Z" fill="#70A4CC"/>
<path opacity="0.1" d="M387.2 304.489H373.508V318.187H387.2V304.489Z" fill="#70A4CC"/>
<path opacity="0.1" d="M439.469 304.489H425.777V318.187H439.469V304.489Z" fill="#70A4CC"/>
<path opacity="0.1" d="M373.508 347.105V338.271H387.195V345.847L373.508 347.105Z" fill="#70A4CC"/>
<path opacity="0.1" d="M8.66575 143.707V151.544H55.5234V143.707H8.66575ZM13.3356 151.052H9.51307V144.189H13.3645L13.3356 151.052ZM18.0007 151.052H14.1492V144.189H18.0007V151.052ZM22.6561 151.052H18.8047V144.189H22.6561V151.052ZM27.3212 151.052H23.4746V144.189H27.326L27.3212 151.052ZM31.9814 151.052H28.13V144.189H31.9814V151.052ZM36.6465 151.052H32.795V144.189H36.6465V151.052ZM41.3116 151.052H37.4601V144.189H41.3116V151.052ZM45.9718 151.052H42.1204V144.189H45.9718V151.052ZM50.632 151.052H46.7806V144.189H50.632V151.052ZM55.2923 151.052H51.4408V144.189H55.2923V151.052Z" fill="#70A4CC"/>
<path opacity="0.1" d="M8.66575 166.508V174.345H55.5234V166.508H8.66575ZM13.3356 173.849H9.51307V167.004H13.3645L13.3356 173.849ZM18.0007 173.849H14.1492V167.004H18.0007V173.849ZM22.6561 173.849H18.8047V167.004H22.6561V173.849ZM27.3212 173.849H23.4746V167.004H27.326L27.3212 173.849ZM31.9814 173.849H28.13V167.004H31.9814V173.849ZM36.6465 173.849H32.795V167.004H36.6465V173.849ZM41.3116 173.849H37.4601V167.004H41.3116V173.849ZM45.9718 173.849H42.1204V167.004H45.9718V173.849ZM50.632 173.849H46.7806V167.004H50.632V173.849ZM55.2923 173.849H51.4408V167.004H55.2923V173.849Z" fill="#70A4CC"/>
<path opacity="0.1" d="M8.66575 189.319V197.17H55.5234V189.319H8.66575ZM13.3356 196.659H9.51307V189.81H13.3645L13.3356 196.659ZM18.0007 196.659H14.1492V189.81H18.0007V196.659ZM22.6561 196.659H18.8047V189.81H22.6561V196.659ZM27.3212 196.659H23.4746V189.81H27.326L27.3212 196.659ZM31.9814 196.659H28.13V189.81H31.9814V196.659ZM36.6465 196.659H32.795V189.81H36.6465V196.659ZM41.3116 196.659H37.4601V189.81H41.3116V196.659ZM45.9718 196.659H42.1204V189.81H45.9718V196.659ZM50.632 196.659H46.7806V189.81H50.632V196.659ZM55.2923 196.659H51.4408V189.81H55.2923V196.659Z" fill="#70A4CC"/>
<path opacity="0.1" d="M8.66575 212.129V219.956H55.5234V212.129H8.66575ZM13.3356 219.47H9.51307V212.616H13.3645L13.3356 219.47ZM18.0007 219.47H14.1492V212.616H18.0007V219.47ZM22.6561 219.47H18.8047V212.616H22.6561V219.47ZM27.3212 219.47H23.4746V212.616H27.326L27.3212 219.47ZM31.9814 219.47H28.13V212.616H31.9814V219.47ZM36.6465 219.47H32.795V212.616H36.6465V219.47ZM41.3116 219.47H37.4601V212.616H41.3116V219.47ZM45.9718 219.47H42.1204V212.616H45.9718V219.47ZM50.632 219.47H46.7806V212.616H50.632V219.47ZM55.2923 219.47H51.4408V212.616H55.2923V219.47Z" fill="#70A4CC"/>
<path opacity="0.1" d="M8.86795 234.935C9.05571 235.672 9.26753 236.409 9.48899 237.136V235.426H13.3404V242.275H11.2799C11.3425 242.434 11.4051 242.608 11.4677 242.757H55.5234V234.935H8.86795ZM18.0151 242.275H14.1637V235.426H18.0151V242.275ZM22.6706 242.275H18.8191V235.426H22.6706V242.275ZM27.3356 242.275H23.4746V235.426H27.326L27.3356 242.275ZM31.9959 242.275H28.1444V235.426H31.9959V242.275ZM36.6609 242.275H32.8095V235.426H36.6609V242.275ZM41.326 242.275H37.4746V235.426H41.326V242.275ZM45.9862 242.275H42.1348V235.426H45.9862V242.275ZM50.6465 242.275H46.795V235.426H50.6465V242.275ZM55.3067 242.275H51.4553V235.426H55.3067V242.275Z" fill="#70A4CC"/>
<path opacity="0.1" d="M19.7483 257.746C19.8686 257.9 19.9842 258.073 20.1094 258.227H22.6561V261.517C22.9305 261.844 23.2001 262.172 23.4794 262.48V258.208H27.3308V265.081H25.771C25.925 265.24 26.0743 265.409 26.2524 265.563H55.5378V257.746H19.7483ZM31.9814 265.081H28.13V258.237H31.9814V265.081ZM36.6465 265.081H32.795V258.237H36.6465V265.081ZM41.3116 265.081H37.4601V258.237H41.3116V265.081ZM45.9718 265.081H42.1204V258.237H45.9718V265.081ZM50.632 265.081H46.7806V258.237H50.632V265.081ZM55.2923 265.081H51.4408V258.237H55.2923V265.081Z" fill="#70A4CC"/>
<path opacity="0.1" d="M45.4519 280.551C45.89 280.802 46.3377 281.033 46.7902 281.283V281.043H50.6417V283.21L51.4601 283.59V281.043H55.3116V285.209C55.3854 285.245 55.4628 285.275 55.5426 285.295V280.551H45.4519Z" fill="#70A4CC"/>
<path opacity="0.1" d="M302.632 230.653C302.723 230.962 302.801 231.27 302.887 231.573C302.81 231.27 302.728 230.962 302.632 230.653ZM72.4457 88.6943V90.7509H93.9512V88.6943H72.4457ZM302.632 230.653C302.723 230.962 302.801 231.27 302.887 231.573C302.81 231.27 302.728 230.962 302.632 230.653ZM302.632 230.653C302.723 230.962 302.801 231.27 302.887 231.573C302.81 231.27 302.728 230.962 302.632 230.653Z" fill="#70A4CC"/>
<path d="M222.228 182.865C222.228 182.865 220.331 182.6 220.331 179.835C220.331 177.071 218.974 171.907 218.974 171.907C218.974 171.883 217.799 162.915 216.177 161.49C214.554 160.064 212.47 151.693 212.47 151.693C212.47 151.693 212.113 147.151 211.387 146.173C210.66 145.196 209.677 142.802 208.228 139.387C206.779 135.972 200.737 133.607 200.737 133.607C200.737 133.607 189.814 127.269 186.718 125.203C186.437 125.033 186.174 124.834 185.933 124.61C185.394 123.902 183.045 123.888 183.045 123.888C182.799 122.337 182.563 120.555 182.486 118.941C182.486 118.768 182.486 118.595 182.462 118.421C185.914 116.38 188.514 113.161 189.785 109.357C189.842 109.174 189.891 108.981 189.944 108.798C190.15 108.73 190.341 108.619 190.502 108.473C190.664 108.327 190.793 108.149 190.882 107.95C191.162 107.329 191.166 106.602 191.513 106.024C191.917 105.34 192.688 104.974 193.294 104.458C194.825 103.158 195.22 100.966 195.148 98.9725C195.1 97.359 194.84 95.731 194.941 94.1272L194.97 93.7226C194.999 93.4818 195.032 93.2409 195.076 93.0097C195.312 91.8153 195.827 90.6882 196.116 89.5034C196.404 88.3186 196.433 86.9844 195.759 85.9633C194.772 84.4654 192.717 84.1668 190.911 84.0127C188.865 83.8393 187.036 84.0657 185.726 82.3655C185.113 81.4769 184.424 80.6436 183.666 79.8754C183.396 79.6249 180.777 78.0259 180.777 77.9199C178.221 76.7355 175.324 76.5132 172.617 77.2938C171.259 77.6887 169.979 78.3341 168.602 78.6568C165.631 79.36 162.213 78.599 159.69 80.2992C158.285 81.2625 157.442 82.7941 156.653 84.2872C156.011 85.517 155.359 86.7452 154.698 87.9718C153.634 89.9899 152.551 92.0416 152.103 94.2765C152.009 94.7628 151.951 95.2554 151.93 95.7503V95.7744C151.93 95.9526 151.93 96.1308 151.93 96.309V96.5354C151.93 96.7039 151.93 96.8677 151.959 97.017C151.988 97.1663 151.983 97.2145 151.997 97.3156C152.012 97.4168 152.036 97.6431 152.065 97.7973C152.094 97.9514 152.151 98.2211 152.209 98.433C152.233 98.5245 152.267 98.6112 152.296 98.6979C152.344 98.8617 152.402 99.0206 152.464 99.1796C152.498 99.2614 152.532 99.3482 152.57 99.43C152.642 99.5986 152.729 99.7624 152.816 99.9117C152.854 99.9791 152.883 100.042 152.922 100.104C153.056 100.328 153.204 100.544 153.364 100.75C154.395 102.036 155.911 102.854 157.033 104.059C157.033 104.107 157.033 104.155 157.033 104.198C157.033 104.333 157.033 104.463 157.033 104.598C157.093 107.283 157.807 109.914 159.114 112.26C160.421 114.606 162.282 116.597 164.534 118.06C164.534 118.243 164.558 118.431 164.567 118.614C164.661 120.043 164.644 121.478 164.514 122.905C164.318 122.674 164.073 122.49 163.796 122.367C163.52 122.243 163.219 122.184 162.916 122.192C162.709 122.182 162.502 122.2 162.3 122.245L162.257 122.212V122.255C161.197 122.515 159.893 123.618 158.646 126.754C158.646 126.754 154.852 131.031 151.964 130.852C149.075 130.674 141.762 135.303 141.762 135.303C141.762 135.303 134.627 139.936 133.096 144.656C132.241 147.333 131.215 149.952 130.025 152.497L121.205 170.679L119.578 185.104C119.578 185.104 120.478 191.52 120.3 192.498C120.122 193.475 124.002 202.294 124.002 202.294C124.002 202.294 136.823 224.83 142.061 225.986L142.436 225.721C142.66 225.838 142.898 225.927 143.144 225.986L144.222 225.225C144.287 226.073 144.259 226.926 144.14 227.768C143.418 229.993 144.41 244.515 145.671 247.361C146.933 250.208 146.485 287.53 146.485 287.53L146.307 290.825C146.307 290.825 146.307 290.931 146.35 291.114L146.307 291.894L146.437 291.961C146.572 293.006 146.528 294.067 146.307 295.097C145.854 296.542 145.671 300.626 145.671 300.626C145.671 300.626 142.065 323.687 143.774 328.32C145.483 332.954 146.937 338.03 146.937 338.03C146.937 338.03 148.743 343.81 147.024 344.797C145.305 345.785 140.419 347.442 141.425 349.85C142.34 352.075 145.811 358.038 146.326 358.91L146.283 359.367L145.575 367.04C145.69 368.053 145.964 369.041 146.389 369.968C147.164 371.639 148.671 373.373 151.535 373.185C152.016 373.152 152.575 373.094 153.114 373.022C158.357 372.318 164.813 369.978 164.813 369.978C164.478 369.765 164.17 369.511 163.898 369.221C163.64 368.972 163.436 368.672 163.298 368.341C163.16 368.01 163.091 367.654 163.094 367.295C163.171 365.898 160.557 359.242 159.907 357.604C159.806 357.368 159.753 357.233 159.753 357.233C159.753 357.233 165.713 351.001 164.721 345.477C164.721 345.477 158.126 341.623 160.297 339.509C162.468 337.395 166.349 331.321 166.349 331.321C166.349 331.321 166.527 308.612 166.349 305.221C166.163 302.868 166.274 300.5 166.681 298.175C166.753 297.823 166.84 297.481 166.931 297.144C169.934 297.592 172.965 297.822 176.001 297.833C177.109 297.833 178.235 297.833 179.371 297.765C179.371 298.086 179.386 298.433 179.415 298.805C179.665 304.431 180.132 314.295 180.512 317.96C181.052 323.215 184.032 337.375 184.032 337.375C184.032 337.375 178.346 341.026 185.023 350.023C185.023 350.023 185.023 353.284 184.58 353.756C184.108 355.299 183.727 356.869 183.439 358.457C183.16 360.152 183.045 361.867 183.497 362.758C184.58 364.887 191.08 364.713 191.08 364.713L191.239 364.684C192.466 364.557 193.706 364.676 194.887 365.032C196.068 365.388 197.166 365.976 198.118 366.76C200.588 368.745 209.961 367.873 215.036 367.242C217.024 366.991 218.353 366.76 218.353 366.76C218.417 366.535 218.44 366.3 218.42 366.067C218.367 364.819 217.39 362.084 210.765 359.642C210.765 359.642 204.536 355.451 204.622 351.801H204.492H203.77C204.295 351.772 204.632 351.801 204.632 351.801C204.632 351.801 202.191 342.89 203.188 342.168C204.184 341.445 201.199 331.572 201.199 331.572C201.199 331.572 199.49 315.003 199.399 313.842C199.403 312.846 199.554 311.856 199.847 310.904L199.399 301.821C199.399 301.821 199.312 298.801 199.399 297.818C199.384 296.965 199.315 296.114 199.192 295.27C199.149 294.933 199.105 294.581 199.057 294.235C201.392 293.642 202.909 293.093 202.909 293.093L202.639 261.473C204.622 257.62 204.988 249.168 204.979 243.171C204.979 239.318 204.805 236.467 204.805 236.467L207.516 232.04C207.516 232.04 208.142 226.742 207.15 225.582C206.712 225.057 206.909 224.512 207.27 224.064C207.458 223.916 207.656 223.78 207.862 223.66C207.862 223.66 207.834 223.616 207.8 223.554C207.989 223.396 208.19 223.252 208.402 223.125C208.402 223.125 207.439 221.632 208.301 221.001C209.109 221.55 209.831 221.964 210.38 222.302C210.342 222.653 210.303 222.855 210.303 222.855L210.534 222.374C211.064 222.672 211.387 222.855 211.387 222.855C211.387 222.855 215.633 214.393 215.541 213.146C215.45 211.898 218.43 206.643 218.43 206.643C218.43 206.643 218.791 203.884 220.418 202.728C222.045 201.572 221.679 193.196 221.679 193.196C221.679 193.196 222.132 188.832 223.215 187.05C224.298 185.268 222.228 182.865 222.228 182.865ZM140.982 179.151L141.064 181.169C140.583 180.394 140.236 179.835 140.236 179.835L140.982 179.151Z" fill="url(#paint0_linear_13_38)"/>
<path d="M211.618 219.2L210.578 223.631C210.578 223.631 202.249 219.378 200.747 213.974C199.245 208.57 203.26 206.518 203.26 206.518L211.021 209.808L211.618 219.2Z" fill="white"/>
<path opacity="0.1" d="M211.618 219.2L210.578 223.631C210.578 223.631 202.249 219.378 200.747 213.974C199.245 208.57 203.26 206.518 203.26 206.518L211.021 209.808L211.618 219.2Z" fill="black"/>
<path d="M164.876 370.007C164.876 370.007 157.173 372.839 151.877 373.195C149.065 373.383 147.587 371.659 146.827 369.997C146.411 369.073 146.143 368.09 146.032 367.083L146.721 359.449L147.087 355.384L158.338 352.46L159.931 357.335L160.08 357.706C160.721 359.333 163.287 365.956 163.21 367.338C163.207 367.692 163.275 368.043 163.411 368.37C163.546 368.697 163.747 368.993 163.999 369.241C164.258 369.532 164.552 369.79 164.876 370.007Z" fill="white"/>
<path d="M217.491 366.124C217.51 366.356 217.487 366.59 217.424 366.813C217.424 366.813 200.949 369.563 197.579 366.813C196.629 366.01 195.521 365.414 194.328 365.064C193.134 364.714 191.88 364.617 190.646 364.781C190.646 364.781 184.272 364.954 183.208 362.854C182.765 361.973 182.881 360.263 183.155 358.577C183.435 356.998 183.808 355.436 184.272 353.9L184.528 353.698L186.044 352.48L203.799 351.955H203.934C203.847 355.586 209.961 359.752 209.961 359.752C216.456 362.161 217.414 364.882 217.491 366.124Z" fill="white"/>
<path opacity="0.1" d="M217.491 366.124C217.508 366.357 217.483 366.59 217.419 366.813C217.419 366.813 200.949 369.563 197.579 366.813C196.629 366.01 195.523 365.415 194.33 365.065C193.137 364.715 191.884 364.618 190.651 364.781C190.651 364.781 184.272 364.954 183.213 362.854C182.77 361.968 182.881 360.263 183.155 358.577C185.611 358.823 189.486 359.434 191.008 360.894C193.309 363.114 197.208 365.33 199.601 365.503C201.474 365.624 212.677 365.98 217.491 366.124Z" fill="black"/>
<path opacity="0.1" d="M164.876 370.007C164.876 370.007 157.173 372.839 151.877 373.195C149.065 373.383 147.587 371.659 146.831 369.992C148.791 370.652 151.511 371.346 152.941 370.71C154.635 369.958 160.644 369.472 164.014 369.265C164.27 369.546 164.56 369.795 164.876 370.007Z" fill="black"/>
<path d="M176.305 141.781C169.95 139.31 161.775 131.146 163.816 127.332C164.27 126.369 164.539 125.33 164.611 124.268C164.742 122.827 164.761 121.378 164.669 119.934C164.525 117.568 164.241 115.214 163.816 112.882C163.816 112.882 183.656 113.33 182.501 116.254C182.164 117.111 182.111 118.599 182.202 120.266C182.294 121.932 182.534 123.816 182.785 125.41C183.131 127.596 183.478 129.263 183.478 129.263C183.478 129.263 182.265 130.963 181.552 131.055C180.84 131.146 185.423 145.302 176.305 141.781Z" fill="#CF6F80"/>
<path opacity="0.1" d="M160.066 357.706L159.917 357.869C153.986 350.693 146.812 359.637 146.812 359.637L146.706 359.449L147.072 355.384L158.323 352.46L159.917 357.335L160.066 357.706Z" fill="black"/>
<path opacity="0.1" d="M203.939 352.46C203.939 352.46 199.606 352.369 197.295 354.411C194.984 356.453 183.815 354.854 184.296 354.411C184.439 354.191 184.525 353.94 184.547 353.679L186.063 352.46L203.818 351.935C203.886 352.258 203.939 352.46 203.939 352.46Z" fill="black"/>
<path d="M167.446 296.103C167.124 296.902 166.879 297.729 166.715 298.574C166.313 300.889 166.202 303.245 166.382 305.587C166.561 308.958 166.382 331.552 166.382 331.552C166.382 331.552 162.574 337.578 160.451 339.702C158.328 341.826 164.784 345.64 164.784 345.64C165.747 351.131 159.912 357.335 159.912 357.335C153.981 350.158 146.807 359.107 146.807 359.107C146.807 359.107 142.908 352.364 141.935 349.956C140.963 347.548 145.743 345.881 147.424 344.903C149.104 343.926 147.342 338.16 147.342 338.16C147.342 338.16 145.922 333.108 144.237 328.499C142.552 323.889 146.095 300.944 146.095 300.944C146.095 300.944 146.278 296.869 146.716 295.448C146.937 294.423 146.981 293.368 146.846 292.327C146.817 291.976 146.783 291.682 146.759 291.485C146.735 291.287 146.716 291.196 146.716 291.196L146.783 291.08L149.191 286.591C149.191 286.591 168.602 293.276 167.446 296.103Z" fill="#70A4CC"/>
<path d="M203.939 351.931C203.939 351.931 199.606 351.839 197.295 353.857C194.984 355.875 183.815 354.3 184.296 353.857C184.778 353.414 184.739 350.134 184.739 350.134C178.187 341.185 183.776 337.554 183.776 337.554C183.776 337.554 180.849 323.466 180.32 318.24C179.949 314.589 179.492 304.778 179.246 299.176C179.14 296.768 179.078 295.111 179.078 295.111L184.431 294.032L185.12 293.893L198.032 291.302C198.032 291.302 198.388 293.71 198.629 295.68C198.749 296.521 198.816 297.368 198.831 298.218C198.744 299.181 198.831 302.196 198.831 302.196L199.269 311.237C198.983 312.185 198.835 313.17 198.831 314.16C198.917 315.311 200.598 331.793 200.598 331.793C200.598 331.793 203.52 341.628 202.523 342.336C201.527 343.044 203.939 351.931 203.939 351.931Z" fill="#70A4CC"/>
<path opacity="0.1" d="M182.501 116.254C182.164 117.111 182.111 118.599 182.202 120.266C179.545 121.867 176.49 122.685 173.388 122.627C170.287 122.57 167.264 121.637 164.669 119.938C164.526 117.571 164.241 115.215 163.816 112.882C163.816 112.882 183.656 113.321 182.501 116.254Z" fill="black"/>
<path d="M190.17 105.609C190.174 107.345 189.901 109.07 189.361 110.72C188.155 114.416 185.682 117.566 182.378 119.614C179.075 121.662 175.154 122.476 171.309 121.911C167.464 121.347 163.942 119.441 161.366 116.53C158.79 113.619 157.325 109.891 157.23 106.004C157.23 105.87 157.23 105.744 157.23 105.609C157.193 103.422 157.591 101.248 158.402 99.2162C159.213 97.184 160.421 95.3338 161.954 93.7734C163.487 92.213 165.316 90.9736 167.333 90.1276C169.35 89.2816 171.515 88.8459 173.703 88.8459C175.89 88.8459 178.055 89.2816 180.072 90.1276C182.089 90.9736 183.918 92.213 185.451 93.7734C186.984 95.3338 188.192 97.184 189.003 99.2162C189.814 101.248 190.212 103.422 190.175 105.609H190.17Z" fill="#CF6F80"/>
<path opacity="0.1" d="M176.305 141.781C169.95 139.31 161.775 131.146 163.816 127.332C164.27 126.369 164.539 125.33 164.611 124.268L173.31 131.421L178.693 135.837L182.785 125.415C183.131 127.601 183.478 129.268 183.478 129.268C183.478 129.268 182.265 130.968 181.552 131.059C180.84 131.151 185.423 145.302 176.305 141.781Z" fill="black"/>
<path d="M198.802 173.391L191.537 295.487L182.063 296.108L157.529 225.312L161.554 141.261L162.401 123.502L173.31 132.466L178.697 136.882L182.91 126.156L190.743 132.986L198.802 173.391Z" fill="#70A4CC"/>
<path opacity="0.1" d="M167.446 296.104C167.124 296.902 166.879 297.729 166.715 298.574C159.82 297.509 153.125 295.417 146.851 292.366L146.721 292.299L146.764 291.523L146.788 291.119L149.195 286.63C149.195 286.63 168.602 293.276 167.446 296.104Z" fill="black"/>
<path opacity="0.1" d="M184.542 298.594C182.78 298.894 181.002 299.096 179.217 299.201C179.111 296.792 179.049 295.136 179.049 295.136L184.402 294.057L184.542 298.594Z" fill="black"/>
<path opacity="0.1" d="M198.6 295.704C195.177 296.595 189.891 297.597 185.158 296.971L185.091 293.917L198.003 291.326C198.003 291.326 198.359 293.71 198.6 295.704Z" fill="black"/>
<path opacity="0.1" d="M185.072 297.529C165.333 300.901 147.255 291.234 147.255 291.234L147.428 287.959C147.428 287.959 147.876 250.829 146.634 247.983C145.392 245.136 144.424 230.701 145.127 228.486C145.83 226.27 142.561 193.047 142.561 193.047L142.032 179.561L122.649 171.705L131.315 153.634C132.485 151.1 133.492 148.494 134.329 145.831C135.836 141.14 142.831 136.531 142.831 136.531C142.831 136.531 150.004 131.926 152.84 132.1C155.675 132.273 159.392 128.025 159.392 128.025C162.136 121.027 164.62 124.196 164.62 124.196C164.62 124.528 164.62 124.196 164.486 125.232C163.523 132.914 180.055 157.189 180.291 157.617L181.865 195.985L183.459 244.539L185.072 297.529Z" fill="black"/>
<path d="M184.542 297.529C164.803 300.901 146.721 291.234 146.721 291.234L146.899 287.959C146.899 287.959 147.347 250.829 146.1 247.983C144.853 245.136 143.89 230.702 144.598 228.486C145.305 226.27 142.032 193.047 142.032 193.047L141.497 179.561L122.105 171.676L130.771 153.605C131.939 151.07 132.945 148.464 133.785 145.803C135.287 141.111 142.287 136.502 142.287 136.502C142.287 136.502 149.46 131.898 152.291 132.071C155.122 132.244 158.843 127.996 158.843 127.996C161.592 120.998 164.62 124.167 164.62 124.167C164.62 124.5 164.331 124.649 164.486 125.203C166.604 132.654 179.525 157.16 179.761 157.588L181.355 195.956L182.948 244.51L184.542 297.529Z" fill="white"/>
<path opacity="0.1" d="M179.222 158.682C177.099 157.795 165.853 144.95 165.853 144.95V142.026C165.444 141.063 163.012 141.651 161.039 142.325L161.886 124.567L162.849 125.366C164.957 132.813 178.977 158.253 179.222 158.682Z" fill="black"/>
<path d="M179.757 157.617C177.629 156.731 166.382 143.886 166.382 143.886V140.962C165.973 139.999 163.542 140.586 161.568 141.261L162.42 123.502L163.383 124.302C165.497 131.748 179.521 157.193 179.757 157.617Z" fill="white"/>
<path opacity="0.1" d="M147.255 221.68C147.52 221.68 160.981 220.264 160.981 220.264C160.981 220.264 169.131 236.298 168.597 240.199C168.063 244.101 167.095 247.554 163.816 246.942C160.538 246.331 146.172 247.424 146.172 247.424L147.255 221.68Z" fill="black"/>
<path d="M146.721 220.616C146.986 220.616 160.446 219.2 160.446 219.2C160.446 219.2 168.592 235.238 168.063 239.135C167.533 243.031 166.556 246.49 163.282 245.878C160.008 245.266 145.638 246.359 145.638 246.359L146.721 220.616Z" fill="white"/>
<path d="M156.865 213.088C156.865 213.088 169.218 219.73 169.483 221.757C169.748 223.785 163.195 220.871 161.78 220.52C160.848 220.295 159.9 220.147 158.944 220.077L149.503 220.332L156.865 213.088Z" fill="#CF6F80"/>
<path opacity="0.1" d="M175.775 159.51C176.493 159.51 177.075 158.928 177.075 158.21C177.075 157.491 176.493 156.909 175.775 156.909C175.057 156.909 174.475 157.491 174.475 158.21C174.475 158.928 175.057 159.51 175.775 159.51Z" fill="black"/>
<path d="M175.775 158.98C176.493 158.98 177.075 158.398 177.075 157.68C177.075 156.962 176.493 156.379 175.775 156.379C175.057 156.379 174.475 156.962 174.475 157.68C174.475 158.398 175.057 158.98 175.775 158.98Z" fill="#3F3D56"/>
<path opacity="0.1" d="M178.168 215.804C178.886 215.804 179.468 215.222 179.468 214.504C179.468 213.786 178.886 213.203 178.168 213.203C177.45 213.203 176.868 213.786 176.868 214.504C176.868 215.222 177.45 215.804 178.168 215.804Z" fill="black"/>
<path d="M178.168 215.27C178.886 215.27 179.468 214.687 179.468 213.969C179.468 213.251 178.886 212.669 178.168 212.669C177.45 212.669 176.868 213.251 176.868 213.969C176.868 214.687 177.45 215.27 178.168 215.27Z" fill="#3F3D56"/>
<path opacity="0.1" d="M177.07 187.657C177.788 187.657 178.37 187.075 178.37 186.357C178.37 185.638 177.788 185.056 177.07 185.056C176.352 185.056 175.77 185.638 175.77 186.357C175.77 187.075 176.352 187.657 177.07 187.657Z" fill="black"/>
<path d="M177.07 187.127C177.788 187.127 178.37 186.545 178.37 185.827C178.37 185.109 177.788 184.526 177.07 184.526C176.352 184.526 175.77 185.109 175.77 185.827C175.77 186.545 176.352 187.127 177.07 187.127Z" fill="#3F3D56"/>
<path d="M207.034 219.807C207.034 219.807 207.92 221.136 207.034 221.757C206.149 222.379 207.121 223.881 207.121 223.881C207.121 223.881 204.911 225.177 205.884 226.343C206.856 227.508 206.24 232.773 206.24 232.773L203.583 237.175C203.583 237.175 203.741 240.012 203.751 243.845C203.751 249.827 203.4 258.237 201.455 262.071L201.724 293.527C201.724 293.527 192.418 296.927 184.629 295.892L183.473 245.416C183.473 245.416 185.158 216.792 185.779 211.301C186.143 208.45 186.291 205.577 186.222 202.704C186.222 202.704 185.957 194.111 185.067 190.123C185.067 190.123 184.104 172.847 184.008 168.064C183.964 165.776 184.085 159.101 184.219 152.753C184.369 145.812 184.537 139.267 184.537 139.267L182.78 125.357C182.78 125.357 184.537 125.179 185.067 125.887C185.304 126.108 185.562 126.307 185.837 126.479C188.87 128.531 199.587 134.84 199.587 134.84C199.587 134.84 205.518 137.2 206.938 140.582C208.358 143.963 209.345 146.361 210.034 147.325C210.722 148.288 211.098 152.815 211.098 152.815C211.098 152.815 213.139 161.148 214.732 162.559C216.326 163.97 217.491 172.948 217.491 172.948L203.409 184.026C203.409 184.026 202.172 202.453 201.907 203.166C201.642 203.879 207.034 219.807 207.034 219.807Z" fill="white"/>
<path d="M207.569 219.807C207.569 219.807 208.45 221.136 207.569 221.757C206.688 222.379 207.651 223.881 207.651 223.881C207.651 223.881 205.455 225.191 206.418 226.357C207.381 227.522 206.774 232.787 206.774 232.787L204.117 237.189C204.117 237.189 204.276 240.026 204.29 243.86C204.29 249.842 203.939 258.251 201.994 262.085L202.259 293.541C202.259 293.541 192.938 296.941 185.158 295.906L184.008 245.43C184.008 245.43 185.693 216.806 186.314 211.315C186.677 208.465 186.824 205.591 186.752 202.718C186.752 202.718 186.487 194.125 185.601 190.138C185.601 190.138 184.638 172.861 184.537 168.078C184.494 165.791 184.619 159.115 184.749 152.767C184.898 145.826 185.067 139.281 185.067 139.281L182.746 125.183C182.746 125.183 185.067 125.183 185.601 125.901C185.836 126.125 186.094 126.324 186.371 126.493C189.404 128.545 200.126 134.855 200.126 134.855C200.126 134.855 206.052 137.215 207.472 140.596C208.893 143.977 209.88 146.376 210.573 147.339C211.266 148.302 211.632 152.83 211.632 152.83C211.632 152.83 213.673 161.162 215.267 162.573C216.86 163.984 218.011 172.943 218.011 172.943L203.929 184.021C203.929 184.021 202.692 202.448 202.422 203.161C202.153 203.874 207.569 219.807 207.569 219.807Z" fill="white"/>
<path opacity="0.1" d="M190.704 143.37L191.975 147.079L185.283 153.822C185.433 146.886 185.601 140.336 185.601 140.336L183.281 126.238C183.281 126.238 185.601 126.238 186.135 126.956C186.37 127.18 186.628 127.377 186.906 127.544L192.596 143.968L190.704 143.37Z" fill="black"/>
<path d="M190.17 142.306L191.446 146.014L184.754 152.757C184.903 145.817 185.072 139.271 185.072 139.271L182.746 125.174C182.746 125.174 185.072 125.174 185.601 125.891C185.837 126.114 186.095 126.313 186.371 126.484L192.067 142.903L190.17 142.306Z" fill="white"/>
<path opacity="0.1" d="M190.17 105.609C190.174 107.345 189.901 109.07 189.361 110.72C189.27 110.734 189.177 110.73 189.088 110.707C188.999 110.685 188.915 110.645 188.841 110.59C188.716 106.255 186.583 102.185 183.959 98.722C183.223 97.6764 182.33 96.7504 181.312 95.9766C180.282 95.2032 179.002 94.8409 177.72 94.9604C176.276 95.1578 175 96.1404 173.541 96.2656C171.616 96.4246 169.892 95.0904 167.981 95.023C167.204 95.0304 166.437 95.2034 165.732 95.5307C165.028 95.8579 164.401 96.3318 163.893 96.9206C162.889 98.109 162.143 99.4933 161.703 100.986C160.946 103.249 160.534 105.613 160.48 107.998C160.456 109.347 160.326 111.038 159.074 111.529C159.169 110.537 159.056 109.536 158.743 108.59C158.431 107.644 157.926 106.774 157.259 106.033L157.23 106.004C157.23 105.87 157.23 105.744 157.23 105.609C157.193 103.422 157.591 101.248 158.402 99.2162C159.213 97.184 160.421 95.3338 161.954 93.7734C163.487 92.213 165.316 90.9736 167.333 90.1276C169.35 89.2816 171.515 88.8459 173.703 88.8459C175.89 88.8459 178.055 89.2816 180.072 90.1276C182.089 90.9736 183.918 92.213 185.451 93.7734C186.984 95.3338 188.192 97.184 189.003 99.2162C189.814 101.248 190.212 103.422 190.175 105.609H190.17Z" fill="black"/>
<path d="M180.522 79.4419C178.02 78.2645 175.175 78.0419 172.521 78.8157C171.187 79.2107 169.931 79.8513 168.578 80.174C165.689 80.8723 162.319 80.1162 159.84 81.8067C158.463 82.77 157.635 84.292 156.865 85.7706L154.939 89.4407C153.889 91.4492 152.83 93.4913 152.392 95.7021C151.954 97.9128 152.219 100.388 153.62 102.166C154.64 103.461 156.147 104.275 157.254 105.494C157.918 106.235 158.421 107.105 158.733 108.05C159.044 108.995 159.157 109.994 159.065 110.985C160.321 110.503 160.442 108.808 160.47 107.459C160.524 105.073 160.936 102.709 161.693 100.446C162.133 98.9535 162.879 97.5689 163.884 96.3812C164.391 95.7928 165.018 95.3193 165.723 94.9921C166.428 94.6649 167.194 94.4915 167.971 94.4835C169.897 94.5509 171.625 95.8803 173.532 95.7213C174.976 95.6009 176.257 94.6136 177.71 94.4209C178.992 94.2996 180.273 94.662 181.302 95.4372C182.32 96.2098 183.211 97.136 183.945 98.1825C186.574 101.646 188.706 105.706 188.831 110.05C189.376 110.45 190.16 109.93 190.43 109.313C190.699 108.697 190.709 107.974 191.051 107.387C191.446 106.708 192.202 106.346 192.794 105.836C194.296 104.54 194.671 102.358 194.613 100.379C194.556 98.3993 194.171 96.3908 194.546 94.445C194.772 93.2505 195.283 92.1331 195.562 90.9531C195.841 89.7731 195.875 88.4486 195.215 87.4323C194.252 85.9392 192.226 85.6454 190.459 85.5057C188.451 85.3323 186.655 85.5539 185.375 83.8633C184.774 82.9811 184.097 82.1528 183.353 81.3877C183.098 81.1372 180.522 79.5478 180.522 79.4419Z" fill="#512E4E"/>
<path opacity="0.1" d="M128.195 181.01L123.164 171.705L121.571 186.063C121.571 186.063 122.457 192.44 122.279 193.417C122.1 194.395 125.909 203.161 125.909 203.161C125.909 203.161 138.488 225.577 143.625 226.733L160.981 214.326L156.378 208.478C156.378 208.478 154.785 207.857 154.385 208.478C154.385 208.478 145.84 193.769 144.954 192.705C144.068 191.64 144.241 189.516 144.241 189.516C144.241 189.516 142.913 188.1 143.356 186.771C143.798 185.441 140.79 180.832 140.79 180.832L143.534 178.265L128.195 181.01Z" fill="black"/>
<path d="M123.429 170.646L122.1 171.705L120.507 186.063C120.507 186.063 121.393 192.44 121.215 193.418C121.036 194.395 124.849 203.161 124.849 203.161C124.849 203.161 137.424 225.577 142.561 226.733L159.922 214.326L155.314 208.478C155.314 208.478 153.721 207.857 153.321 208.478C153.321 208.478 144.776 193.769 143.89 192.705C143.004 191.64 143.182 189.516 143.182 189.516C143.182 189.516 141.854 188.1 142.296 186.771C142.739 185.442 139.726 180.832 139.726 180.832L142.47 178.265L123.429 170.646Z" fill="white"/>
<path opacity="0.1" d="M205.884 226.892C206.847 228.062 206.24 233.317 206.24 233.317L203.583 237.719C203.583 237.719 203.741 240.56 203.751 244.39L199.283 245.786C198.88 245.912 198.452 245.94 198.035 245.867C197.618 245.794 197.225 245.623 196.888 245.367C196.551 245.111 196.281 244.778 196.098 244.396C195.916 244.014 195.828 243.594 195.841 243.171L196.611 218.313L207.034 222.301C206.149 222.918 207.121 224.43 207.121 224.43C207.121 224.43 204.911 225.721 205.884 226.892Z" fill="black"/>
<path d="M206.418 226.357C207.381 227.527 206.774 232.787 206.774 232.787L204.117 237.189C204.117 237.189 204.276 240.026 204.29 243.86L199.741 245.281C199.345 245.404 198.926 245.43 198.518 245.358C198.111 245.287 197.726 245.118 197.396 244.868C197.066 244.617 196.801 244.291 196.623 243.917C196.445 243.543 196.358 243.132 196.371 242.718L197.146 217.784L207.574 221.772C206.683 222.388 207.655 223.896 207.655 223.896C207.655 223.896 205.455 225.191 206.418 226.357Z" fill="white"/>
<path d="M209.87 214.509C209.87 214.509 209.162 219.031 207.391 219.296C205.619 219.561 204.825 226.612 203.058 226.362C201.291 226.111 202.461 219.807 202.523 218.583C202.586 217.36 200.598 212.293 202.085 211.142C203.573 209.991 208.281 211.142 208.281 211.142L209.87 214.509Z" fill="#CF6F80"/>
<path opacity="0.1" d="M213.64 179.681L216.981 172.938C216.981 172.938 218.309 178.077 218.309 180.823C218.309 183.568 220.168 183.838 220.168 183.838C220.168 183.838 222.204 186.246 221.131 187.999C220.057 189.752 219.624 194.116 219.624 194.116C219.624 194.116 219.975 202.444 218.382 203.595C216.788 204.746 216.456 207.496 216.456 207.496C216.456 207.496 213.529 212.722 213.62 213.964C213.712 215.207 209.547 223.621 209.547 223.621C209.547 223.621 211.584 213.165 199.717 208.647C199.717 208.647 199.625 205.097 200.511 204.125C201.397 203.152 202.779 202.708 201.912 197.791C201.045 192.873 201.662 186.997 201.662 185.817C201.662 184.637 204.319 177.278 204.319 177.278L213.64 179.681Z" fill="black"/>
<path d="M215.084 171.975L218.001 172.938C218.001 172.938 219.335 178.077 219.335 180.823C219.335 183.568 221.193 183.838 221.193 183.838C221.193 183.838 223.23 186.246 222.156 187.999C221.083 189.752 220.654 194.116 220.654 194.116C220.654 194.116 221.005 202.443 219.412 203.595C217.818 204.746 217.462 207.496 217.462 207.496C217.462 207.496 214.54 212.722 214.631 213.964C214.723 215.207 210.554 223.621 210.554 223.621C210.554 223.621 212.595 213.165 200.723 208.647C200.723 208.647 200.636 205.097 201.522 204.124C202.408 203.152 203.79 202.708 202.923 197.791C202.056 192.873 202.673 186.997 202.673 185.817C202.673 184.637 205.33 177.278 205.33 177.278L215.084 171.975Z" fill="white"/>
<path opacity="0.1" d="M150.644 346.748C150.644 346.748 155.295 343.825 158.347 345.949C161.4 348.073 150.644 346.748 150.644 346.748Z" fill="black"/>
<path opacity="0.1" d="M186.781 337.708C186.781 337.708 190.897 337.178 194.354 340.901C197.81 344.624 186.781 337.708 186.781 337.708Z" fill="black"/>
<g opacity="0.1">
<path d="M192.803 104.781C192.211 105.292 191.45 105.658 191.056 106.337C190.719 106.92 190.709 107.637 190.439 108.263C190.17 108.89 189.385 109.4 188.841 109.005C188.716 104.67 186.578 100.6 183.955 97.1327C183.221 96.0861 182.329 95.16 181.312 94.3873C180.281 93.6123 178.999 93.2499 177.715 93.3711C176.271 93.5685 175 94.5511 173.541 94.6715C171.616 94.8352 169.887 93.5011 167.976 93.4337C167.199 93.4414 166.433 93.6152 165.729 93.9433C165.025 94.2714 164.399 94.7463 163.893 95.3362C162.888 96.5221 162.142 97.905 161.703 99.3964C160.946 101.659 160.534 104.023 160.48 106.409C160.451 107.753 160.326 109.429 159.084 109.93C159.113 110.286 159.113 110.643 159.084 110.999C160.336 110.517 160.461 108.822 160.49 107.474C160.543 105.088 160.956 102.724 161.713 100.461C162.152 98.968 162.898 97.5835 163.903 96.3958C164.41 95.8075 165.036 95.334 165.74 95.0068C166.444 94.6796 167.209 94.5062 167.986 94.4981C169.911 94.5655 171.644 95.8949 173.551 95.7359C174.995 95.6155 176.276 94.6281 177.725 94.4355C179.008 94.3143 180.291 94.6767 181.321 95.4517C182.339 96.2244 183.231 97.1506 183.964 98.1971C186.588 101.66 188.726 105.72 188.851 110.065C189.395 110.465 190.18 109.944 190.449 109.328C190.719 108.711 190.728 107.989 191.065 107.401C191.46 106.722 192.221 106.361 192.813 105.85C194.315 104.555 194.691 102.373 194.633 100.393C194.633 100.331 194.633 100.268 194.633 100.21C194.541 101.925 194.084 103.673 192.803 104.781Z" fill="black"/>
<path d="M157.264 104.439C156.157 103.221 154.645 102.407 153.629 101.116C152.774 99.9731 152.285 98.5976 152.228 97.1711C152.077 98.9537 152.574 100.731 153.629 102.175C154.645 103.471 156.157 104.285 157.264 105.504C158.327 106.695 158.966 108.206 159.079 109.8C159.153 108.83 159.03 107.855 158.718 106.934C158.406 106.013 157.912 105.164 157.264 104.439Z" fill="black"/>
<path d="M195.572 89.8985C195.287 91.0785 194.782 92.2007 194.551 93.3904C194.414 94.1853 194.364 94.9928 194.402 95.7986C194.418 95.3396 194.468 94.8824 194.551 94.4307C194.782 93.2362 195.287 92.1188 195.572 90.9388C195.737 90.288 195.791 89.6137 195.73 88.9448C195.7 89.2661 195.647 89.5848 195.572 89.8985Z" fill="black"/>
</g>
<path opacity="0.1" d="M63.9003 366.332C89.8083 366.332 110.811 362.957 110.811 358.794C110.811 354.631 89.8083 351.256 63.9003 351.256C37.9923 351.256 16.9897 354.631 16.9897 358.794C16.9897 362.957 37.9923 366.332 63.9003 366.332Z" fill="#70A4CC"/>
<path d="M65.412 214.398H62.3934V282.391H65.412V214.398Z" fill="#535461"/>
<path d="M84.3803 282.184L84.1926 285.247L83.923 289.582L83.8122 291.383L83.5475 295.718L83.4319 297.519L83.1623 301.854L80.1197 351.015C79.9874 353.131 79.0545 355.116 77.5108 356.567C75.9671 358.018 73.9286 358.827 71.8102 358.828H55.9904C53.8725 358.827 51.8345 358.018 50.2916 356.567C48.7487 355.115 47.8168 353.13 47.6857 351.015L44.6575 301.82L44.3879 297.486L44.2772 295.684L44.0076 291.35L43.8968 289.548L43.6272 285.213L43.4347 282.15C43.4012 281.561 43.4885 280.97 43.6912 280.416C43.894 279.861 44.2078 279.354 44.6135 278.925C45.0193 278.496 45.5083 278.155 46.0507 277.922C46.593 277.689 47.1773 277.569 47.7675 277.57H80.1245C80.7125 277.575 81.2933 277.7 81.8309 277.939C82.3686 278.177 82.8517 278.523 83.2505 278.956C83.6493 279.388 83.9553 279.897 84.1496 280.453C84.3439 281.008 84.4224 281.597 84.3803 282.184Z" fill="#3F3D56" fill-opacity="0.79"/>
<path d="M84.1926 285.247L83.923 289.568H43.8776L43.608 285.247H84.1926Z" fill="white"/>
<path d="M83.8122 291.369L83.5474 295.694H44.2579L43.9883 291.369H83.8122Z" fill="white"/>
<path d="M83.4319 297.5L83.1671 301.821H44.6382L44.3686 297.5H83.4319Z" fill="white"/>
<path d="M39.0007 239.882C56.5777 252.606 63.9147 272.508 63.9147 272.508C63.9147 272.508 42.7318 271.781 25.1499 259.056C7.56809 246.331 0.245529 226.434 0.245529 226.434C0.245529 226.434 21.4188 227.157 39.0007 239.882Z" fill="#70A4CC"/>
<path d="M0.231088 226.434C0.231088 226.434 22.2228 238.644 29.2758 248.753C36.3287 258.863 63.9147 272.508 63.9147 272.508" stroke="#535461" stroke-width="2" stroke-miterlimit="10"/>
<path d="M50.348 214.249C59.914 221.17 63.9147 232.002 63.9147 232.002C63.9147 232.002 52.3845 231.607 42.8136 224.686C33.2428 217.765 29.2517 206.928 29.2517 206.928C29.2517 206.928 40.7772 207.323 50.348 214.249Z" fill="#70A4CC"/>
<path d="M29.2517 206.928C29.2517 206.928 41.2201 213.574 45.0571 219.075C48.8941 224.575 63.9147 232.002 63.9147 232.002" stroke="#535461" stroke-width="2" stroke-miterlimit="10"/>
<path d="M77.804 231.453C66.8129 243.537 64.4876 259.33 64.4876 259.33C64.4876 259.33 79.9849 255.525 90.9663 243.436C101.948 231.347 104.283 215.559 104.283 215.559C104.283 215.559 88.795 219.368 77.804 231.453Z" fill="#70A4CC"/>
<path d="M104.292 215.563C104.292 215.563 89.9746 227.951 86.3349 236.486C82.6953 245.021 64.4876 259.33 64.4876 259.33" stroke="#535461" stroke-width="2" stroke-miterlimit="10"/>
<path d="M481.272 227.2C481.272 227.2 473.323 187.638 476.366 182.716C476.366 182.716 476.477 178.14 476.294 172.307C476.294 172.086 476.294 171.864 476.294 171.638C476.829 171.995 477.387 172.317 477.964 172.601C480.768 174.042 483.986 174.458 487.063 173.776L484.656 171.094C484.078 170.453 483.477 169.759 483.351 168.912C483.226 168.064 483.573 167.308 483.871 166.552C486.158 160.772 486.279 153.504 481.873 149.092C478.152 145.384 477.247 140.596 473.208 137.21C470.257 134.73 468.634 131.093 467.103 127.577C465.808 124.606 464.503 121.61 463.762 118.46C463.184 115.999 462.953 113.451 462.159 111.047C461.365 108.644 459.877 106.308 457.552 105.234C456.724 104.853 455.804 104.637 455.048 104.131C454.056 103.461 453.459 102.373 452.742 101.419C449.098 96.6029 436.893 99.4398 431.116 101.395C429.546 101.888 428.091 102.694 426.841 103.765L426.894 103.678C426.937 103.606 426.99 103.534 427.039 103.461C426.406 103.973 425.86 104.583 425.421 105.268C424.578 106.602 424.227 108.157 423.524 109.602C422.677 111.312 417.964 116.085 419.99 118.007C420.132 118.136 420.295 118.24 420.472 118.315C421.233 118.632 422.07 118.716 422.879 118.556L422.792 118.763C422.1 120.459 421.745 122.273 421.748 124.105C421.748 132.018 428.271 138.433 436.325 138.433C437.839 138.435 439.345 138.203 440.788 137.745C440.822 137.928 440.851 138.111 440.884 138.294C440.884 138.366 440.909 138.438 440.918 138.511L440.663 138.867C440.65 138.845 440.636 138.824 440.62 138.804L433.061 149.372C431.906 150.186 425.252 155.002 424.877 158.614C424.482 162.569 424.087 167.197 424.087 167.197L424.034 168.189C423.704 168.465 423.318 168.667 422.902 168.779C422.487 168.891 422.052 168.912 421.627 168.839C419.268 168.454 419.268 177.509 419.268 177.509C419.268 177.509 417.699 178.954 416.62 177.702C415.542 176.449 412.692 180.693 412.692 180.693L394.831 181.463L394.422 181.487L393.459 178.506C393.355 178.192 393.132 177.931 392.837 177.78C392.542 177.629 392.2 177.601 391.884 177.702C391.81 177.726 391.737 177.757 391.668 177.793L391.6 177.832L391.475 177.918L391.413 177.976C391.378 178.008 391.346 178.041 391.316 178.077L391.259 178.145L391.23 178.174C391.119 178.327 391.045 178.505 391.015 178.693C390.985 178.88 390.999 179.072 391.056 179.253L391.884 181.81C388.437 182.504 384.913 184.459 387.787 189.844L373.219 187.151L377.933 191.111L402.264 196.134C401.942 196.712 402.153 197.55 403.16 198.73C407.492 203.821 415.388 205.203 418.565 205.56C419.404 207.438 420.453 209.215 421.69 210.858L421.415 215.93C421.415 215.93 413.371 254.586 411.898 256.546C412.641 255.703 413.322 254.807 413.934 253.864C411.599 261.806 408.335 272.677 407.478 274.305C406.101 276.905 404.825 287.429 406.395 288.104C406.876 288.311 408.253 288.21 410.217 288.06V288.932L410.131 321.968C410.131 321.968 410.525 342.23 409.442 344.162C408.359 346.093 408.07 350.144 408.07 350.144C408.07 350.144 403.737 358.134 400.305 361.347C400.281 361.372 400.256 361.394 400.228 361.414L400.122 360.663C400.122 360.663 395.996 365.874 386.868 365.58C386.868 365.58 381.375 369.154 389.521 369.347C397.666 369.539 408.07 369.058 408.07 369.058C408.07 369.058 415.335 357.98 421.42 359.425V367.82H423.283V359.29C424.147 358.721 424.887 357.982 425.457 357.119C426.027 356.255 426.416 355.285 426.6 354.267C426.76 353.217 426.643 352.144 426.261 351.153C425.88 350.162 425.247 349.288 424.424 348.617C424.055 348.283 423.759 347.876 423.554 347.422C423.349 346.967 423.241 346.476 423.235 345.978L423.168 346.035C423.168 345.867 423.125 345.693 423.105 345.515C422.571 341.18 421.902 332.236 424.265 325.619C427.506 316.544 428.488 303.906 426.129 296.383C425.367 293.978 424.742 291.532 424.256 289.057C424.198 288.744 424.145 288.445 424.097 288.166C425.71 288.384 427.306 288.706 428.878 289.129C434.342 290.637 446.296 290.916 456.502 290.834C456.526 291.114 456.555 291.408 456.589 291.701C456.771 293.744 457.151 295.763 457.725 297.732C459.006 301.585 459.593 318.572 459.593 318.572C459.593 318.572 461.244 332.54 460.344 338.223C459.862 341.383 459.381 344.557 459.107 347.745V347.808C459.107 347.808 456.401 355.514 454.422 359.7C454.374 359.805 454.321 359.911 454.273 360.013C453.746 360.061 453.226 360.176 452.728 360.355C452.728 360.355 450.075 365.653 447.432 366.529C444.789 367.406 445.665 370.291 451.649 369.231C457.633 368.172 466.67 367.305 466.67 367.305L467.06 361.901L468.899 359.598L468.417 364.988L470.377 364.603L470.117 358.048L473.126 354.281C473.126 354.281 476.761 351.044 471.359 344.677V344.817C471.301 344.725 471.248 344.629 471.186 344.537V344.509C470.29 343.121 469.578 340.535 470.882 335.945C473.241 327.651 474.613 320.123 474.613 320.123C474.613 320.123 479.88 299.957 473.55 290.415H473.829C473.18 289.073 472.721 287.646 472.466 286.177C472.434 286.004 472.405 285.825 472.38 285.642C477.064 285.373 481.662 284.525 485.412 282.695C485.398 282.675 483.14 234.82 481.272 227.2ZM421.801 193.822V193.919L420.838 193.967L421.801 193.822ZM418.498 194.28C418.34 194.315 418.191 194.386 418.065 194.487C417.651 195.073 417.391 195.754 417.309 196.466L415.807 196.129C415.807 196.129 414.752 195.903 413.236 195.648L412.519 194.925C414.492 194.761 416.543 194.521 418.498 194.28Z" fill="url(#paint1_linear_13_38)"/>
<path d="M468.196 358.115L467.623 364.94L469.544 364.554L469.255 357.152L468.196 358.115Z" fill="#1D2366"/>
<path d="M424.371 325.71C422.056 332.308 422.71 341.214 423.23 345.539C423.423 347.138 423.601 348.111 423.601 348.111C423.601 348.111 420.14 356 419.851 356.299C419.562 356.598 409.664 362.642 409.664 362.642L402.746 366.683C402.746 366.683 395.726 363.605 399.091 362.546C399.779 362.27 400.398 361.847 400.906 361.308C404.276 358.105 408.508 350.144 408.508 350.144C408.508 350.144 408.797 346.103 409.856 344.181C410.915 342.259 410.53 322.064 410.53 322.064L410.612 289.144V284.852L423.779 284.949C423.862 286.406 424.052 287.854 424.347 289.283C424.82 291.75 425.432 294.188 426.182 296.585C428.502 304.094 427.539 316.67 424.371 325.71Z" fill="#FFB0B1"/>
<path opacity="0.1" d="M423.601 348.111C423.601 348.111 420.14 356 419.851 356.299C419.562 356.598 409.664 362.642 409.664 362.642L402.746 366.683C402.746 366.683 395.726 363.606 399.091 362.546C399.779 362.27 400.398 361.848 400.906 361.308L401.205 363.413L403.511 363.317L423.25 345.549C423.423 347.138 423.601 348.111 423.601 348.111Z" fill="black"/>
<path d="M423.36 345.997L403.511 363.885L401.205 363.981L400.723 360.61C400.723 360.61 396.689 365.802 387.725 365.513C387.725 365.513 382.342 369.072 390.32 369.265C398.297 369.458 408.484 368.976 408.484 368.976C408.484 368.976 415.6 357.898 421.555 359.343V367.709H423.384V359.266C424.235 358.693 424.961 357.954 425.519 357.093C426.076 356.232 426.454 355.268 426.629 354.257C426.788 353.216 426.676 352.151 426.304 351.166C425.932 350.181 425.313 349.308 424.506 348.631C424.146 348.293 423.858 347.886 423.661 347.432C423.464 346.979 423.362 346.491 423.36 345.997Z" fill="#1D2366"/>
<path d="M470.025 335.998C468.745 340.573 469.443 343.15 470.319 344.533V344.561C471.443 346.268 472.224 348.177 472.62 350.182L472.697 350.616L463.666 363.789L458.765 365.715C458.765 365.715 450.884 363.023 452.323 362.252C452.684 362.064 453.248 361.062 453.893 359.68C455.818 355.514 458.476 347.827 458.476 347.827V347.764C458.755 344.59 459.198 341.426 459.689 338.276C460.57 332.607 458.953 318.693 458.953 318.693C458.953 318.693 458.375 301.772 457.123 297.924C456.558 295.968 456.182 293.961 456.001 291.933C455.741 289.524 455.684 287.54 455.684 287.54C455.684 287.54 460.873 280.315 470.387 288.118C471.147 288.74 471.817 289.467 472.375 290.276C478.946 299.629 473.655 320.234 473.655 320.234C473.655 320.234 472.331 327.728 470.025 335.998Z" fill="#FFB0B1"/>
<path opacity="0.1" d="M472.712 350.616L463.68 363.789L458.779 365.715C458.779 365.715 450.898 363.023 452.338 362.252C452.699 362.064 453.262 361.063 453.907 359.68C457.243 359.651 458.972 362.83 458.972 362.83L463.199 362.156C463.199 362.156 468.774 351.194 470.025 350.524C471.277 349.855 470.218 345.52 470.218 345.52V344.417C470.252 344.456 470.281 344.499 470.319 344.537V344.566C471.443 346.273 472.224 348.182 472.62 350.187L472.712 350.616Z" fill="black"/>
<path d="M459.261 363.114C459.261 363.114 456.854 358.693 452.241 360.326C452.241 360.326 449.647 365.624 447.052 366.481C444.457 367.338 445.323 370.228 451.187 369.173C457.051 368.119 465.89 367.247 465.89 367.247L466.275 361.857L472.235 354.262C472.235 354.262 475.788 351.04 470.502 344.696V345.799C470.502 345.799 471.561 350.134 470.31 350.803C469.058 351.473 463.502 362.44 463.502 362.44L459.261 363.114Z" fill="#1D2366"/>
<path opacity="0.1" d="M423.794 284.939C423.877 286.396 424.067 287.845 424.362 289.274C418.941 288.479 413.91 288.874 410.612 289.134V284.843L423.794 284.939Z" fill="black"/>
<path opacity="0.1" d="M472.909 291.475C472.909 291.475 465.206 291.851 456.021 291.928C455.761 289.519 455.703 287.535 455.703 287.535C455.703 287.535 460.893 280.31 470.406 288.113C471.167 288.735 471.836 289.462 472.394 290.271C472.543 290.681 472.715 291.083 472.909 291.475Z" fill="black"/>
<path d="M472.909 290.608C472.909 290.608 439.171 292.241 428.887 289.356C418.604 286.471 408.412 288.97 406.876 288.301C405.34 287.632 406.587 277.146 407.935 274.55C409.283 271.954 416.678 245.7 416.678 245.7L423.794 208.585L431.29 206.518L431.819 206.369L444.88 202.766L454.451 200.122C454.451 200.122 473.482 274.454 471.85 279.935C471.257 282.034 471.162 284.242 471.571 286.384C471.82 287.847 472.271 289.268 472.909 290.608Z" fill="#646376"/>
<path d="M398.99 183.202C398.99 183.202 392.25 190.427 397.353 194.453C402.457 198.48 405.812 194.838 405.812 194.838L398.99 183.202Z" fill="#C7DAF5"/>
<path opacity="0.1" d="M398.99 183.202C398.99 183.202 392.25 190.427 397.353 194.453C402.457 198.48 405.812 194.838 405.812 194.838L398.99 183.202Z" fill="black"/>
<path d="M453.445 135.702C453.445 135.702 452.655 136.454 451.466 137.562C449.772 139.146 447.263 141.463 445.039 143.404C441.958 146.087 439.416 148.057 440.326 146.376C441.236 144.695 441.063 141.766 440.61 139.026C440.576 138.843 440.547 138.66 440.514 138.481C440.139 136.469 439.642 134.481 439.026 132.528C439.026 132.528 444.004 126.094 446.758 123.555C447.783 122.592 448.501 122.197 448.544 122.867C448.592 123.767 449.266 125.757 450.104 127.866C450.128 127.934 450.152 127.996 450.181 128.064C450.739 129.509 451.37 130.992 451.924 132.273C452.771 134.238 453.445 135.702 453.445 135.702Z" fill="#FFB0B1"/>
<path opacity="0.1" d="M450.181 128.064C449.713 130.581 448.578 132.926 446.894 134.854C445.211 136.783 443.04 138.223 440.61 139.026C440.227 136.827 439.698 134.656 439.026 132.528C439.026 132.528 448.4 120.415 448.544 122.867C448.578 123.796 449.309 125.858 450.181 128.064Z" fill="black"/>
<path opacity="0.1" d="M439.676 142.262L440.889 140.552C440.889 140.552 441.693 145.456 444.649 143.293C447.605 141.13 447.75 159.568 447.75 159.568L444.577 207.024L421.651 205.651L422.301 182.72L424.896 171.161L431.314 154.356L435.131 148.803L439.676 142.262Z" fill="black"/>
<path d="M447.75 159.862L444.861 202.771L444.558 207.318L431.776 206.552L431.294 206.523L421.666 205.945L422.316 183.009L424.911 171.45L431.328 154.645L435.146 149.092L439.691 142.527L440.904 140.822C440.904 140.822 441.708 145.725 444.664 143.563L444.726 143.519C447.615 141.689 447.75 159.862 447.75 159.862Z" fill="#1D2366"/>
<path d="M425.233 167.433C425.233 167.433 424.083 169.841 421.772 169.451C419.461 169.061 419.466 178.121 419.466 178.121C419.466 178.121 417.93 179.566 416.871 178.313C415.812 177.061 413.019 181.295 413.019 181.295L395.524 182.065C395.524 182.065 403.309 185.625 401.783 196.394C401.783 196.394 428.213 194.757 429.08 192.257C429.946 189.757 425.233 167.433 425.233 167.433Z" fill="white"/>
<path opacity="0.03" d="M425.233 167.433C425.233 167.433 424.083 169.841 421.772 169.451C419.461 169.061 419.466 178.121 419.466 178.121C419.466 178.121 417.93 179.566 416.871 178.313C415.812 177.061 413.019 181.295 413.019 181.295L395.524 182.065C395.524 182.065 403.309 185.625 401.783 196.394C401.783 196.394 428.213 194.757 429.08 192.257C429.946 189.757 425.233 167.433 425.233 167.433Z" fill="black"/>
<path d="M374.389 187.725L379.001 191.664L416.967 199.645L412.259 194.838L374.389 187.725Z" fill="white"/>
<path d="M439.748 143.779C439.118 144.743 437.312 149.675 435.805 153.981C434.549 157.569 433.499 160.724 433.499 160.724C433.499 160.724 431.049 176.685 429.797 179.57C428.545 182.455 429.224 193.706 429.224 193.706L424.559 221.492C424.559 221.492 422.446 235.821 419.182 244.38C415.961 252.804 412.374 256.753 412.263 256.879C413.708 254.923 421.579 216.421 421.579 216.421L424.179 167.862C424.179 167.862 424.559 163.247 424.944 159.303C425.329 155.358 433.129 149.973 433.129 149.973L440.649 139.276C441.404 140.288 440.899 142.05 439.748 143.779Z" fill="white"/>
<path d="M420.14 206.186C420.14 206.186 409.067 205.704 403.704 199.26C398.34 192.815 416.1 196.688 416.1 196.688L420.717 197.747L420.14 206.186Z" fill="#FFB0B1"/>
<path opacity="0.1" d="M471.85 279.94C471.257 282.038 471.162 284.247 471.571 286.389C459.492 287.246 446.57 283.981 446.57 283.981C444.163 286.196 437.823 289.462 437.823 289.462L434.366 246.596C432.156 240.816 431.29 210.535 431.29 210.535C431.29 210.535 431.487 208.95 431.771 206.576C431.771 206.518 431.771 206.456 431.795 206.398C432.657 199.766 434.366 187.315 435.204 185.634C436.359 183.322 431.651 177.172 431.651 177.172L433.793 158.893L434.053 156.688C438.569 154.669 442.03 148.225 442.03 148.225L444.688 143.568C447.576 141.713 447.726 159.886 447.726 159.886L444.837 202.795L454.408 200.151C454.408 200.151 473.482 274.459 471.85 279.94Z" fill="black"/>
<path d="M484.247 282.902C471.08 289.442 447.148 283.383 447.148 283.383C444.741 285.599 438.4 288.864 438.4 288.864L434.939 245.998C432.734 240.219 431.867 209.938 431.867 209.938C431.867 209.938 434.65 187.344 435.805 185.037C436.142 184.363 435.979 183.361 435.579 182.282C433.615 177.147 432.892 171.62 433.47 166.152L434.395 158.296L434.65 156.095C439.171 154.072 442.632 147.628 442.632 147.628L445.039 143.409L449.468 135.635L451.567 131.955L451.924 132.278L454.644 134.744C454.644 134.744 455.799 135.707 457.532 137.152C461.302 140.331 467.816 145.928 471.176 149.352C474.132 152.367 475.066 164.095 475.336 172.924C475.514 178.737 475.408 183.293 475.408 183.293C472.428 188.201 480.222 227.604 480.222 227.604C482.037 235.219 484.247 282.902 484.247 282.902Z" fill="white"/>
<path opacity="0.03" d="M458.972 147.532C458.972 147.532 449.935 164.741 450.985 171.281C452.034 177.822 455.019 185.225 453.58 186.954C453.085 187.609 452.446 188.141 451.712 188.508C450.978 188.874 450.169 189.066 449.348 189.068C447.904 189.165 444.052 191.857 444.052 192.146C444.052 192.435 440.495 192.435 437.312 193.784C434.13 195.132 429.431 195.898 429.431 195.898C429.431 195.898 420.284 195.609 419.432 196.476C418.58 197.343 417.704 202.53 419.528 206.668C421.353 210.805 423.38 213.892 424.911 214.456C426.442 215.019 436.157 211.763 444.038 210.993C451.919 210.222 460.474 203.975 460.474 203.975C460.474 203.975 469.895 200.604 471.547 194.935C473.198 189.266 469.53 158.108 469.53 158.108C469.53 158.108 466.757 143.587 458.972 147.532Z" fill="black"/>
<path opacity="0.03" d="M457.816 146.087C457.816 146.087 448.78 163.301 449.839 169.836C450.898 176.372 453.873 183.78 452.429 185.514C451.936 186.17 451.298 186.702 450.565 187.069C449.831 187.436 449.022 187.627 448.202 187.628C446.758 187.725 442.906 190.417 442.906 190.706C442.906 190.995 439.349 190.995 436.166 192.339C432.984 193.683 428.285 194.453 428.285 194.453C428.285 194.453 419.138 194.164 418.291 195.031C417.444 195.898 416.558 201.09 418.387 205.223C420.217 209.355 422.239 212.447 423.77 213.011C425.301 213.574 435.016 210.318 442.897 209.553C450.778 208.787 459.333 202.53 459.333 202.53C459.333 202.53 468.75 199.159 470.382 193.495C472.014 187.831 468.365 156.664 468.365 156.664C468.365 156.664 465.601 142.147 457.816 146.087Z" fill="black"/>
<path d="M458.688 146.665C458.688 146.665 449.651 163.878 450.71 170.414C451.77 176.95 454.745 184.358 453.305 186.087C452.813 186.744 452.174 187.278 451.439 187.646C450.705 188.014 449.895 188.205 449.074 188.206C447.629 188.303 443.778 190.995 443.778 191.279C443.778 191.563 440.225 191.568 437.038 192.917C433.851 194.265 429.157 195.031 429.157 195.031C429.157 195.031 420.01 194.742 419.157 195.609C418.305 196.476 417.429 201.668 419.254 205.801C421.078 209.933 423.105 213.025 424.636 213.589C426.167 214.152 435.882 210.896 443.763 210.126C451.644 209.355 460.199 203.108 460.199 203.108C460.199 203.108 469.621 199.737 471.272 194.068C472.924 188.399 469.279 157.241 469.279 157.241C469.279 157.241 466.468 142.744 458.688 146.665Z" fill="white"/>
<path opacity="0.1" d="M458.49 192.835C458.49 192.835 451.269 191.39 453.782 193.798C456.295 196.206 456.281 198.316 459.357 198.219C462.433 198.123 458.49 192.835 458.49 192.835Z" fill="black"/>
<path opacity="0.1" d="M470.695 244.65C470.695 244.65 467.431 246.86 473.675 251.956C479.919 257.052 470.695 244.65 470.695 244.65Z" fill="black"/>
<path opacity="0.1" d="M464.465 262.822C464.465 263.111 463.31 273.418 467.633 275.995C471.956 278.572 464.465 262.822 464.465 262.822Z" fill="black"/>
<path d="M395.823 182.041C392.337 182.162 384.807 183.226 388.712 190.513C392.164 196.963 397.965 192.652 401.229 189.381C400.433 186.332 398.498 183.705 395.823 182.041Z" fill="#FFB0B1"/>
<path opacity="0.1" d="M457.532 137.446C453.835 139.975 450.734 142.108 450.128 142.551C448.472 143.78 445.314 150.99 443.277 154.67C441.655 157.632 436.383 158.393 434.395 158.58L434.65 156.379C439.171 154.356 442.632 147.912 442.632 147.912L451.567 132.24L454.644 135.038C454.644 135.038 455.799 136.001 457.532 137.446Z" fill="black"/>
<path d="M457.532 137.157C453.835 139.686 450.734 141.819 450.128 142.267C448.472 143.491 445.314 150.701 443.277 154.38C441.655 157.343 436.383 158.104 434.395 158.291L434.65 156.09C439.171 154.067 442.632 147.623 442.632 147.623L451.567 131.95L454.644 134.739C454.644 134.739 455.799 135.693 457.532 137.157Z" fill="#DCE7FF"/>
<path d="M450.417 124.885C450.419 127.776 449.542 130.6 447.904 132.981C445.968 135.797 443.088 137.826 439.786 138.699C436.483 139.572 432.978 139.232 429.904 137.74C426.831 136.248 424.394 133.704 423.036 130.568C421.678 127.433 421.488 123.914 422.501 120.651C423.514 117.387 425.662 114.595 428.557 112.781C431.452 110.967 434.901 110.251 438.278 110.763C441.655 111.275 444.737 112.982 446.964 115.573C449.191 118.164 450.416 121.468 450.417 124.885Z" fill="#FFB0B1"/>
<path opacity="0.1" d="M475.336 172.929C473.38 171.725 471.788 170.014 470.728 167.977C469.924 166.388 469.39 164.553 468.018 163.426C466.781 162.414 465.129 162.169 463.589 161.716C458.524 160.218 454.278 155.594 454.119 150.316C454.042 147.83 454.817 145.35 454.466 142.889C454.266 141.496 453.712 140.177 452.858 139.06C452.433 138.525 451.968 138.024 451.466 137.562C450.792 136.926 450.085 136.309 449.468 135.635C449.08 135.218 448.741 134.757 448.457 134.262C448.228 133.858 448.043 133.43 447.904 132.986C446.941 130.038 447.817 126.542 446.758 123.56L446.7 123.397C446.3 122.337 445.487 121.277 444.356 121.196C443.224 121.114 442.256 122.053 441.178 122.472C438.92 123.348 436.484 121.855 434.602 120.333C432.719 118.811 430.596 117.073 428.204 117.41C426.62 117.636 425.368 118.715 423.909 119.274C423.58 119.401 423.24 119.5 422.893 119.568C424.128 116.488 426.396 113.934 429.308 112.345C432.22 110.756 435.594 110.232 438.851 110.861C442.108 111.491 445.044 113.236 447.154 115.796C449.265 118.356 450.418 121.571 450.417 124.89C450.418 125.892 450.313 126.891 450.104 127.871C450.128 127.938 450.152 128.001 450.181 128.069C450.739 129.513 451.37 130.997 451.924 132.278L454.644 134.744C454.644 134.744 455.799 135.707 457.532 137.152C461.302 140.331 467.816 145.928 471.176 149.352C474.132 152.377 475.056 164.1 475.336 172.929Z" fill="black"/>
<path d="M423.741 110.474C424.429 109.073 424.771 107.502 425.594 106.173C426.803 104.247 428.911 103.014 431.078 102.267C436.735 100.316 448.688 97.4843 452.261 102.267C452.964 103.23 453.546 104.3 454.519 104.964C455.26 105.47 456.155 105.687 456.969 106.067C459.246 107.136 460.7 109.468 461.475 111.847C462.25 114.226 462.481 116.779 463.049 119.23C463.776 122.376 465.052 125.357 466.323 128.319C467.82 131.816 469.409 135.443 472.298 137.913C476.241 141.285 477.112 146.058 480.771 149.757C485.104 154.149 484.964 161.398 482.73 167.154C482.437 167.91 482.105 168.7 482.22 169.504C482.336 170.309 482.933 171.041 483.496 171.681L485.864 174.354C480.261 175.708 473.92 172.779 471.311 167.64C470.507 166.051 469.972 164.221 468.596 163.089C467.363 162.077 465.707 161.836 464.171 161.384C459.107 159.881 454.86 155.252 454.701 149.974C454.624 147.493 455.4 145.013 455.048 142.556C454.853 141.154 454.297 139.826 453.435 138.703C452.111 136.974 450.113 135.813 449.035 133.887C447.21 130.665 448.597 126.479 447.283 123.021C446.878 121.961 446.069 120.902 444.938 120.82C443.807 120.738 442.839 121.677 441.756 122.096C439.503 122.973 437.067 121.485 435.184 119.958C433.302 118.431 431.179 116.697 428.781 117.039C427.197 117.261 425.95 118.339 424.492 118.903C423.413 119.317 421.228 119.688 420.284 118.778C418.291 116.943 422.908 112.189 423.741 110.474Z" fill="#591D4B"/>
<path opacity="0.1" d="M472.649 166.051C471.84 164.461 471.311 162.631 469.934 161.504C468.701 160.493 467.045 160.247 465.505 159.794C460.445 158.296 456.199 153.668 456.035 148.389C455.958 145.908 456.733 143.423 456.386 140.967C456.185 139.573 455.63 138.255 454.774 137.138C453.445 135.409 451.447 134.248 450.373 132.321C448.549 129.104 449.935 124.918 448.616 121.455C448.217 120.401 447.403 119.341 446.276 119.254C445.15 119.168 444.173 120.117 443.094 120.536C440.841 121.412 438.4 119.919 436.523 118.397C434.645 116.875 432.512 115.136 430.12 115.473C428.536 115.7 427.284 116.779 425.83 117.337C424.752 117.752 422.561 118.127 421.618 117.217C419.634 115.29 424.251 110.546 425.079 108.841C425.768 107.435 426.109 105.87 426.937 104.54C426.981 104.468 427.029 104.396 427.077 104.323C426.458 104.837 425.923 105.445 425.493 106.125C424.67 107.454 424.328 109.015 423.64 110.426C422.807 112.131 418.19 116.89 420.178 118.802C421.141 119.717 423.307 119.341 424.386 118.927C425.83 118.363 427.091 117.284 428.675 117.063C431.082 116.721 433.201 118.46 435.078 119.982C436.956 121.504 439.411 122.997 441.655 122.12C442.733 121.701 443.677 120.757 444.832 120.844C445.988 120.93 446.758 121.985 447.177 123.045C448.491 126.503 447.105 130.689 448.929 133.911C450.008 135.804 452.005 136.988 453.329 138.727C454.191 139.85 454.747 141.178 454.942 142.58C455.294 145.037 454.519 147.517 454.596 149.998C454.754 155.296 459.001 159.905 464.065 161.408C465.591 161.86 467.257 162.101 468.49 163.113C469.871 164.244 470.415 166.075 471.205 167.664C473.814 172.803 480.155 175.732 485.759 174.378L484.642 173.116C479.784 173.189 474.869 170.424 472.649 166.051Z" fill="black"/>
<path opacity="0.1" d="M439.459 144.069C438.829 145.032 437.023 149.964 435.516 154.27C434.106 153.721 432.825 150.219 432.825 150.219L440.345 139.517C441.116 140.577 440.61 142.335 439.459 144.069Z" fill="black"/>
<path d="M439.748 143.78C439.118 144.743 437.312 149.675 435.805 153.981C434.395 153.437 433.114 149.93 433.114 149.93L440.634 139.233C441.404 140.288 440.899 142.051 439.748 143.78Z" fill="#DCE7FF"/>
<path d="M396.025 192.984L391.856 179.83C391.806 179.676 391.788 179.514 391.801 179.353C391.815 179.192 391.86 179.035 391.934 178.891C392.008 178.748 392.11 178.62 392.234 178.516C392.358 178.412 392.501 178.333 392.655 178.284C392.965 178.187 393.301 178.217 393.59 178.367C393.878 178.517 394.096 178.774 394.195 179.084L398.364 192.223L397.95 194.973L396.025 192.984Z" fill="#BE8B87"/>
<path opacity="0.1" d="M392.25 178.674C392.561 178.576 392.898 178.605 393.188 178.755C393.478 178.905 393.696 179.163 393.796 179.474L397.965 192.613L397.652 194.675L397.955 194.992L398.369 192.242L394.176 179.103C394.077 178.794 393.859 178.536 393.57 178.386C393.282 178.236 392.946 178.207 392.635 178.304C392.374 178.388 392.149 178.558 391.995 178.785C392.077 178.741 392.162 178.704 392.25 178.674Z" fill="white"/>
<path d="M396.025 192.984L398.365 192.242L398.023 194.497L397.95 194.993L397.267 194.28L396.025 192.984Z" fill="#EFC8C4"/>
<path d="M397.267 194.28C397.308 194.228 397.358 194.186 397.416 194.155C397.45 194.133 397.489 194.122 397.529 194.122C397.569 194.122 397.609 194.133 397.642 194.155C397.675 194.194 397.703 194.238 397.724 194.285C397.756 194.338 397.799 194.383 397.851 194.417C397.903 194.451 397.961 194.474 398.023 194.482L397.95 194.964L397.267 194.28Z" fill="#727A9C"/>
<path d="M391.831 184.502C391.831 184.502 400.194 184.454 398.225 188.014C396.256 191.573 393.179 192.002 393.179 192.002L391.831 184.502Z" fill="#FFB0B1"/>
<path d="M339.823 24.766H339.461C325.096 24.766 312.391 32.3711 305.083 43.5934C297.774 32.3711 285.069 24.766 270.704 24.766H270.343C259.561 24.8688 249.256 29.2241 241.667 36.8854C234.077 44.5467 229.817 54.895 229.811 65.6814C229.811 79.0759 235.675 98.0814 247.109 113.72C268.893 143.519 305.083 169.591 305.083 169.591C305.083 169.591 341.272 143.524 363.052 113.72C374.49 98.0814 380.349 79.0759 380.349 65.6814C380.344 54.8958 376.084 44.5483 368.495 36.8871C360.907 29.2259 350.603 24.87 339.823 24.766ZM334.657 116.013C333.021 116.007 331.425 115.506 330.078 114.576C328.732 113.646 327.698 112.33 327.113 110.802H318.524C317.958 110.798 317.408 110.618 316.95 110.286C316.492 109.955 316.148 109.488 315.968 108.952L313.329 101L304.981 130.183C304.819 130.745 304.479 131.238 304.011 131.59C303.544 131.942 302.976 132.133 302.391 132.133H302.223C301.613 132.104 301.031 131.866 300.576 131.459C300.12 131.052 299.818 130.502 299.719 129.899L291.116 78.1319L284.829 108.764C284.685 109.346 284.35 109.863 283.878 110.232C283.406 110.602 282.823 110.802 282.224 110.802H270.126C269.763 110.817 269.401 110.759 269.062 110.63C268.722 110.502 268.412 110.307 268.15 110.055C267.888 109.804 267.679 109.502 267.537 109.168C267.394 108.834 267.321 108.475 267.321 108.112C267.321 107.748 267.394 107.389 267.537 107.055C267.679 106.721 267.888 106.419 268.15 106.168C268.412 105.917 268.722 105.721 269.062 105.593C269.401 105.465 269.763 105.406 270.126 105.422H280.106L289.012 64.2365C289.159 63.6276 289.512 63.0884 290.011 62.7111C290.511 62.3338 291.126 62.1418 291.751 62.168C292.377 62.1941 292.974 62.4368 293.44 62.8545C293.906 63.2723 294.213 63.8391 294.308 64.4581L303.094 117.265L310.576 91.1554C310.731 90.6055 311.061 90.1208 311.515 89.7736C311.968 89.4264 312.522 89.2353 313.094 89.2289H313.146C313.712 89.2291 314.264 89.408 314.722 89.7401C315.18 90.0722 315.522 90.5406 315.698 91.0784L320.469 105.436H327.007C327.472 104.023 328.318 102.766 329.451 101.804C330.585 100.842 331.963 100.212 333.432 99.9834C334.901 99.7549 336.404 99.937 337.777 100.509C339.149 101.082 340.336 102.023 341.208 103.228C342.08 104.433 342.601 105.855 342.716 107.338C342.83 108.821 342.533 110.307 341.857 111.631C341.181 112.956 340.152 114.068 338.884 114.845C337.616 115.621 336.158 116.032 334.671 116.032L334.657 116.013Z" fill="white"/>
</g>
<defs>
<linearGradient id="paint0_linear_13_38" x1="171.548" y1="373.209" x2="171.548" y2="76.8362" gradientUnits="userSpaceOnUse">
<stop stop-color="#808080" stop-opacity="0.25"/>
<stop offset="0.54" stop-color="#808080" stop-opacity="0.12"/>
<stop offset="1" stop-color="#808080" stop-opacity="0.1"/>
</linearGradient>
<linearGradient id="paint1_linear_13_38" x1="430.124" y1="369.462" x2="430.124" y2="98.7799" gradientUnits="userSpaceOnUse">
<stop stop-color="#808080" stop-opacity="0.25"/>
<stop offset="0.54" stop-color="#808080" stop-opacity="0.12"/>
<stop offset="1" stop-color="#808080" stop-opacity="0.1"/>
</linearGradient>
<clipPath id="clip0_13_38">
<rect width="532" height="377" fill="white"/>
</clipPath>
</defs>
</svg>
