<svg width="101" height="21" viewBox="0 0 101 21" fill="none" xmlns="http://www.w3.org/2000/svg">
<path d="M9.19777 11.7138H12.5141V19.4412C12.5141 20.5788 13.9308 21.1155 14.6821 20.2569L22.8066 11.0269C23.515 10.2219 22.9461 8.96622 21.8729 8.96622H18.5565V1.2388C18.5565 0.101151 17.1398 -0.435477 16.3885 0.423128L8.26403 9.6531C7.56642 10.458 8.13524 11.7138 9.19777 11.7138Z" fill="#0085FF" fill-opacity="0.68"/>
<path d="M8.31774 2.55739H0.804942C0.364907 2.55739 0 2.19249 0 1.75245C0 1.31242 0.364907 0.94751 0.804942 0.94751H8.31774C8.75777 0.94751 9.12268 1.31242 9.12268 1.75245C9.12268 2.19249 8.75777 2.55739 8.31774 2.55739Z" fill="#0085FF" fill-opacity="0.68"/>
<path d="M7.24448 19.7295H0.804942C0.364907 19.7295 0 19.3646 0 18.9246C0 18.4845 0.364907 18.1196 0.804942 18.1196H7.24448C7.68451 18.1196 8.04942 18.4845 8.04942 18.9246C8.04942 19.3646 7.68451 19.7295 7.24448 19.7295Z" fill="#0085FF" fill-opacity="0.68"/>
<path d="M4.02471 11.1435H0.804942C0.364907 11.1435 0 10.7785 0 10.3385C0 9.89848 0.364907 9.53357 0.804942 9.53357H4.02471C4.46475 9.53357 4.82965 9.89848 4.82965 10.3385C4.82965 10.7785 4.46475 11.1435 4.02471 11.1435Z" fill="#0085FF" fill-opacity="0.68"/>
<path d="M31.5293 5.04369H33.2111L37.1657 14.7028H37.3021L41.2566 5.04369H42.9384V16.6801H41.6202V7.83914H41.5066L37.8702 16.6801H36.5975L32.9611 7.83914H32.8475V16.6801H31.5293V5.04369ZM49.241 16.8619C48.4001 16.8619 47.6747 16.6763 47.0648 16.3051C46.4588 15.9301 45.991 15.4073 45.6614 14.7369C45.3357 14.0626 45.1728 13.2785 45.1728 12.3846C45.1728 11.4907 45.3357 10.7028 45.6614 10.021C45.991 9.33536 46.4493 8.80127 47.0364 8.41869C47.6273 8.03233 48.3167 7.83914 49.1046 7.83914C49.5592 7.83914 50.008 7.9149 50.4512 8.06642C50.8944 8.21793 51.2978 8.46414 51.6614 8.80505C52.0251 9.14217 52.3148 9.58914 52.5308 10.146C52.7467 10.7028 52.8546 11.3884 52.8546 12.2028V12.771H46.1273V11.6119H51.491C51.491 11.1194 51.3925 10.6801 51.1955 10.2937C51.0023 9.90733 50.7258 9.6024 50.366 9.37892C50.0099 9.15543 49.5895 9.04369 49.1046 9.04369C48.5705 9.04369 48.1084 9.17627 47.7183 9.44142C47.3319 9.70278 47.0345 10.0437 46.8262 10.4641C46.6179 10.8846 46.5137 11.3354 46.5137 11.8164V12.5891C46.5137 13.2482 46.6273 13.8069 46.8546 14.2653C47.0857 14.7198 47.4058 15.0664 47.8148 15.3051C48.2239 15.5399 48.6993 15.6573 49.241 15.6573C49.5933 15.6573 49.9114 15.6081 50.1955 15.5096C50.4834 15.4073 50.7315 15.2558 50.9398 15.0551C51.1482 14.8505 51.3092 14.5967 51.4228 14.2937L52.7183 14.6573C52.5819 15.0967 52.3527 15.4831 52.0308 15.8164C51.7088 16.146 51.3111 16.4035 50.8376 16.5891C50.3641 16.771 49.8319 16.8619 49.241 16.8619ZM58.1898 16.8619C57.4626 16.8619 56.8205 16.6782 56.2637 16.3107C55.7069 15.9395 55.2713 15.4168 54.9569 14.7426C54.6425 14.0645 54.4853 13.2634 54.4853 12.3391C54.4853 11.4225 54.6425 10.627 54.9569 9.95278C55.2713 9.27854 55.7088 8.75771 56.2694 8.39028C56.83 8.02286 57.4777 7.83914 58.2126 7.83914C58.7808 7.83914 59.2296 7.93384 59.5592 8.12324C59.8925 8.30884 60.1463 8.52096 60.3205 8.7596C60.4986 8.99445 60.6368 9.18763 60.7353 9.33914H60.8489V5.04369H62.1898V16.6801H60.8944V15.3391H60.7353C60.6368 15.4982 60.4967 15.699 60.3148 15.9414C60.133 16.1801 59.8736 16.3941 59.5364 16.5835C59.1993 16.7691 58.7504 16.8619 58.1898 16.8619ZM58.3717 15.6573C58.9095 15.6573 59.3641 15.5172 59.7353 15.2369C60.1065 14.9528 60.3887 14.5607 60.5819 14.0607C60.7751 13.5569 60.8717 12.9755 60.8717 12.3164C60.8717 11.6649 60.777 11.0948 60.5876 10.6062C60.3982 10.1138 60.1179 9.73119 59.7467 9.45846C59.3754 9.18195 58.9171 9.04369 58.3717 9.04369C57.8035 9.04369 57.33 9.18952 56.9512 9.48119C56.5762 9.76907 56.294 10.1611 56.1046 10.6573C55.919 11.1498 55.8262 11.7028 55.8262 12.3164C55.8262 12.9376 55.9209 13.502 56.1103 14.0096C56.3035 14.5134 56.5876 14.9149 56.9626 15.2141C57.3414 15.5096 57.8111 15.6573 58.3717 15.6573ZM64.8319 16.6801V7.95278H66.1728V16.6801H64.8319ZM65.5137 6.49824C65.2523 6.49824 65.027 6.40922 64.8376 6.23119C64.652 6.05316 64.5592 5.83914 64.5592 5.58914C64.5592 5.33914 64.652 5.12513 64.8376 4.9471C65.027 4.76907 65.2523 4.68005 65.5137 4.68005C65.7751 4.68005 65.9986 4.76907 66.1842 4.9471C66.3736 5.12513 66.4683 5.33914 66.4683 5.58914C66.4683 5.83914 66.3736 6.05316 66.1842 6.23119C65.9986 6.40922 65.7751 6.49824 65.5137 6.49824Z" fill="#323232"/>
<path d="M68.8106 16.6801V5.04369H75.7879V6.29369H70.2197V10.2255H75.2651V11.4755H70.2197V16.6801H68.8106ZM80.5876 16.8846C80.0345 16.8846 79.5326 16.7804 79.0819 16.5721C78.6311 16.36 78.2732 16.0551 78.008 15.6573C77.7429 15.2558 77.6103 14.771 77.6103 14.2028C77.6103 13.7028 77.7088 13.2975 77.9058 12.9869C78.1027 12.6725 78.366 12.4263 78.6955 12.2482C79.0251 12.0702 79.3887 11.9376 79.7864 11.8505C80.1879 11.7596 80.5914 11.6876 80.9967 11.6346C81.527 11.5664 81.9569 11.5153 82.2864 11.4812C82.6198 11.4433 82.8622 11.3808 83.0137 11.2937C83.169 11.2066 83.2467 11.0551 83.2467 10.8391V10.7937C83.2467 10.2331 83.0933 9.79748 82.7864 9.48687C82.4834 9.17627 82.0232 9.02096 81.4058 9.02096C80.7656 9.02096 80.2637 9.16111 79.9001 9.44142C79.5364 9.72172 79.2808 10.021 79.133 10.3391L77.8603 9.8846C78.0876 9.3543 78.3906 8.94142 78.7694 8.64596C79.152 8.34672 79.5686 8.13839 80.0194 8.02096C80.4739 7.89975 80.9209 7.83914 81.3603 7.83914C81.6406 7.83914 81.9626 7.87324 82.3262 7.94142C82.6936 8.00581 83.0478 8.14028 83.3887 8.34483C83.7334 8.54937 84.0194 8.85808 84.2467 9.27096C84.4739 9.68384 84.5876 10.2369 84.5876 10.9301V16.6801H83.2467V15.4982H83.1785C83.0876 15.6876 82.9361 15.8903 82.7239 16.1062C82.5118 16.3221 82.2296 16.5058 81.8773 16.6573C81.5251 16.8088 81.0951 16.8846 80.5876 16.8846ZM80.7921 15.6801C81.3224 15.6801 81.7694 15.5759 82.133 15.3676C82.5004 15.1592 82.777 14.8903 82.9626 14.5607C83.152 14.2312 83.2467 13.8846 83.2467 13.521V12.2937C83.1898 12.3619 83.0648 12.4244 82.8717 12.4812C82.6823 12.5342 82.4626 12.5816 82.2126 12.6232C81.9664 12.6611 81.7258 12.6952 81.491 12.7255C81.2599 12.752 81.0724 12.7748 80.9285 12.7937C80.58 12.8391 80.2542 12.913 79.9512 13.0153C79.652 13.1138 79.4095 13.2634 79.2239 13.4641C79.0421 13.6611 78.9512 13.9301 78.9512 14.271C78.9512 14.7369 79.1236 15.0891 79.4683 15.3278C79.8167 15.5626 80.258 15.6801 80.7921 15.6801ZM93.2168 9.90733L92.0123 10.2482C91.9365 10.0475 91.8248 9.8524 91.6771 9.66301C91.5331 9.46983 91.3361 9.31074 91.0861 9.18574C90.8361 9.06074 90.5161 8.99824 90.1259 8.99824C89.5918 8.99824 89.1468 9.12134 88.7907 9.36755C88.4384 9.60998 88.2623 9.91869 88.2623 10.2937C88.2623 10.627 88.3835 10.8903 88.6259 11.0835C88.8683 11.2766 89.2471 11.4376 89.7623 11.5664L91.0577 11.8846C91.838 12.074 92.4195 12.3638 92.8021 12.7539C93.1846 13.1403 93.3759 13.6384 93.3759 14.2482C93.3759 14.7482 93.232 15.1952 92.9441 15.5891C92.66 15.9831 92.2623 16.2937 91.7509 16.521C91.2396 16.7482 90.6449 16.8619 89.9668 16.8619C89.0767 16.8619 88.3399 16.6687 87.7566 16.2823C87.1733 15.896 86.804 15.3316 86.6486 14.5891L87.9214 14.271C88.0426 14.7407 88.2718 15.0929 88.6089 15.3278C88.9498 15.5626 89.3949 15.6801 89.9441 15.6801C90.5691 15.6801 91.0653 15.5475 91.4327 15.2823C91.804 15.0134 91.9896 14.6914 91.9896 14.3164C91.9896 14.0134 91.8835 13.7596 91.6714 13.5551C91.4593 13.3467 91.1335 13.1914 90.6941 13.0891L89.2396 12.7482C88.4403 12.5588 87.8532 12.2653 87.4782 11.8676C87.107 11.466 86.9214 10.9641 86.9214 10.3619C86.9214 9.86945 87.0596 9.43384 87.3361 9.05505C87.6165 8.67627 87.9971 8.37892 88.4782 8.16301C88.963 7.9471 89.5123 7.83914 90.1259 7.83914C90.9896 7.83914 91.6676 8.02854 92.16 8.40733C92.6562 8.78611 93.0085 9.28611 93.2168 9.90733ZM99.1898 7.95278V9.08914H94.6671V7.95278H99.1898ZM95.9853 5.86187H97.3262V14.1801C97.3262 14.5588 97.3811 14.8429 97.491 15.0323C97.6046 15.2179 97.7486 15.3429 97.9228 15.4073C98.1008 15.4679 98.2883 15.4982 98.4853 15.4982C98.633 15.4982 98.7542 15.4907 98.8489 15.4755C98.9436 15.4566 99.0194 15.4414 99.0762 15.4301L99.3489 16.6346C99.258 16.6687 99.1311 16.7028 98.9683 16.7369C98.8054 16.7748 98.5989 16.7937 98.3489 16.7937C97.9701 16.7937 97.5989 16.7123 97.2353 16.5494C96.8754 16.3865 96.5762 16.1384 96.3376 15.8051C96.1027 15.4717 95.9853 15.0513 95.9853 14.5437V5.86187Z" fill="#1D1D1D"/>
</svg>
